<?xml version="1.0" encoding="UTF-8"?>
<svg width="375px" height="375px" viewBox="0 0 375 375" version="1.1" xmlns="http://www.w3.org/2000/svg" xmlns:xlink="http://www.w3.org/1999/xlink">
    <!-- Generator: Sketch 49.3 (51167) - http://www.bohemiancoding.com/sketch -->
    <title>menu</title>
    <desc>Created with Sketch.</desc>
    <defs></defs>
    <g id="Page-1" stroke="none" stroke-width="1" fill="none" fill-rule="evenodd">
        <g id="menu" transform="translate(-8.000000, -8.000000)" fill="#FFFFFF" fill-rule="nonzero">
            <path d="M430.961718,174.961718 L-39.6742816,174.961718 C-51.0962816,174.961718 -60.3562816,184.221718 -60.3562816,195.643718 C-60.3562816,207.065718 -51.0962816,216.325718 -39.6742816,216.325718 L430.961718,216.325718 C442.384718,216.325718 451.643718,207.065718 451.643718,195.643718 C451.643718,184.221718 442.384718,174.961718 430.961718,174.961718 Z" id="Shape" transform="translate(195.643718, 195.643718) rotate(45.000000) translate(-195.643718, -195.643718) "></path>
            <path d="M430.961718,174.961718 L-39.6742816,174.961718 C-51.0962816,174.961718 -60.3562816,184.220718 -60.3562816,195.643718 C-60.3562816,207.066718 -51.0962816,216.325718 -39.6742816,216.325718 L430.961718,216.325718 C442.384718,216.325718 451.643718,207.066718 451.643718,195.643718 C451.643718,184.220718 442.384718,174.961718 430.961718,174.961718 Z" id="Shape" transform="translate(195.643718, 195.643718) rotate(-45.000000) translate(-195.643718, -195.643718) "></path>
        </g>
    </g>
</svg>