<?xml version="1.0" encoding="UTF-8"?>
<!DOCTYPE svg PUBLIC "-//W3C//DTD SVG 1.1//EN" "http://www.w3.org/Graphics/SVG/1.1/DTD/svg11.dtd">
<!-- Creator: CorelDRAW X7 -->
<svg xmlns="http://www.w3.org/2000/svg" xml:space="preserve" width="1000px" height="250px" version="1.1" style="shape-rendering:geometricPrecision; text-rendering:geometricPrecision; image-rendering:optimizeQuality; fill-rule:evenodd; clip-rule:evenodd"
viewBox="0 0 1000 250"
 xmlns:xlink="http://www.w3.org/1999/xlink">
 <defs>
  <style type="text/css">
   <![CDATA[
    .fil0 {fill:none}
    .fil1 {fill:#003082}
    .fil2 {fill:#FEFEFE}
    .fil3 {fill:#373435;fill-rule:nonzero}
    .fil4 {fill:#969491;fill-rule:nonzero}
   ]]>
  </style>
 </defs>
 <g id="Layer_x0020_1">
  <metadata id="CorelCorpID_0Corel-Layer"/>
  <g id="_886915520">
   <polygon class="fil0" points="0,0 1000,0 1000,250 0,250 "/>
   <g>
    <path class="fil1" d="M162 15c61,0 110,49 110,110 0,61 -49,110 -110,110 -61,0 -110,-49 -110,-110 0,-61 49,-110 110,-110z"/>
    <polygon class="fil2" points="187,41 185,41 181,42 178,43 175,43 172,44 169,44 166,45 164,46 161,46 160,47 158,48 155,48 153,49 151,50 149,50 146,51 144,52 142,52 142,53 140,54 138,54 136,55 134,56 132,56 130,57 128,57 127,58 126,59 124,59 122,60 121,61 119,61 117,62 116,63 114,63 112,64 112,65 110,65 108,66 107,67 105,67 104,68 103,68 101,69 99,70 99,70 97,71 96,72 95,72 93,73 92,74 91,74 90,75 88,76 88,76 86,77 86,78 87,80 88,80 88,81 89,82 90,83 90,85 91,86 92,87 92,89 93,90 93,91 94,92 95,93 95,95 96,96 97,98 97,100 98,102 99,103 99,105 100,105 101,107 101,109 102,111 103,113 103,115 104,117 105,119 105,121 106,122 107,124 107,127 108,129 108,131 109,134 110,137 110,139 111,142 112,144 112,146 113,150 114,153 114,156 115,160 116,164 116,168 117,173 117,175 118,176 119,176 121,177 121,178 122,178 123,179 125,179 125,180 127,181 127,181 129,182 129,183 130,183 131,184 132,185 132,185 133,186 134,187 134,187 136,188 136,189 137,190 138,191 139,191 140,192 140,193 142,194 142,195 143,196 143,196 144,197 145,198 146,198 146,199 147,200 147,201 148,202 149,202 149,203 150,204 151,205 151,205 152,207 153,207 153,208 154,209 155,209 155,211 156,211 156,212 158,212 160,211 162,211 163,210 165,209 167,209 169,208 170,207 173,207 173,206 175,205 178,205 180,204 182,204 184,203 186,202 189,202 191,201 193,200 195,200 198,199 200,198 203,198 206,197 209,196 212,196 215,195 216,194 219,194 223,193 226,192 230,192 232,191 232,190 233,187 234,184 234,181 235,178 236,176 236,174 237,172 238,170 238,168 239,167 240,164 240,162 241,161 242,159 242,157 245,150 246,148 247,146 247,145 248,143 249,142 249,141 250,140 251,139 251,137 252,135 253,134 253,133 254,132 254,131 255,130 256,129 257,128 257,126 258,126 258,123 257,122 257,121 256,120 255,119 254,118 254,117 253,116 253,115 252,114 251,113 251,112 250,111 249,109 249,109 248,108 247,107 247,105 246,104 245,104 245,102 244,102 243,100 243,99 242,98 242,97 241,96 240,95 240,94 239,93 238,92 238,91 237,90 236,89 236,88 236,85 236,83 235,72 234,67 234,64 233,61 232,60 232,58 231,57 230,56 230,56 229,55 228,54 228,54 227,53 227,52 225,52 223,51 221,50 206,50 203,51 202,51 201,50 200,49 199,48 199,47 198,46 197,45 197,44 196,44 195,43 194,42 194,41 193,40 191,40 "/>
    <path class="fil1" d="M188 86c6,1 11,4 19,4l17 0c-1,-4 -13,-7 -18,-7l-7 0c-4,0 -9,1 -11,3z"/>
    <path class="fil1" d="M208 125l1 0 37 -5 -16 -25 -20 2 -2 0c-7,0 -13,-3 -17,-3 1,4 15,31 17,31z"/>
    <path class="fil1" d="M170 141l-14 2 -9 3 2 8 9 49 28 -11 2 -34 2 -18 0 -2 -17 2 -3 1zm12 -27l-7 -12 -1 0 -3 -3 -3 -3c-6,4 -8,19 -24,18l-6 -9 -13 9 19 25 26 -6 12 -3 7 -1 -5 -12 -2 -3 0 0zm58 25l6 -12 -38 6 -7 57 22 -3 0 -4c0,-4 2,-11 3,-16 2,-6 5,-9 6,-13l8 -15zm-46 3l-5 50 10 -2 0 -6 4 -49 -9 2 0 5z"/>
    <path class="fil1" d="M94 78l18 20 17 -7c0,-1 -6,-10 -6,-10 0,-6 22,-11 32,-11l-8 -13c-6,3 -19,7 -27,10 -7,2 -20,9 -26,11z"/>
    <path class="fil1" d="M182 68l5 9c8,0 17,1 23,2 5,2 6,2 11,3 3,2 5,5 7,5 0,-7 0,-14 -2,-20 -2,-4 -6,-12 -11,-12l-4 0c-12,0 -25,6 -29,13z"/>
    <path class="fil1" d="M136 83c0,11 6,16 8,23l2 0c2,-11 9,-22 21,-25 -1,-4 -9,-7 -14,-7l-2 0c-5,0 -15,4 -15,9z"/>
    <path class="fil1" d="M179 102l5 8 10 19c10,-1 9,-2 6,-8 -2,-5 -4,-9 -6,-14 -4,-7 -9,-20 -19,-20 0,0 -2,2 -2,2 0,2 5,10 6,13z"/>
    <path class="fil1" d="M137 179l14 14c-1,-9 -8,-38 -12,-41l-2 27z"/>
    <path class="fil1" d="M123 172l0 -15c0,-9 0,-18 -2,-26 0,-4 -8,-17 -10,-19 2,9 5,19 6,30 1,5 2,11 2,15 1,4 1,14 4,15z"/>
    <path class="fil1" d="M169 53l7 13 17 -12 1 0c-1,-1 -4,-6 -5,-6 -9,0 -14,3 -20,5z"/>
    <path class="fil1" d="M128 174l5 4 1 -10 0 -18c0,-6 -4,-15 -8,-16 0,5 2,14 2,19 0,5 0,14 0,21z"/>
    <polygon class="fil1" points="152,58 158,69 171,68 174,68 164,54 "/>
    <path class="fil1" d="M147 110c8,-2 20,-15 20,-25 -10,1 -19,16 -20,25z"/>
    <path class="fil1" d="M178 81l3 0c0,-3 -2,-9 -5,-9l-3 0c-5,0 3,9 5,9z"/>
    <polygon class="fil2" points="83,117 83,118 84,120 84,121 85,122 86,124 86,126 87,128 88,129 88,130 89,132 90,134 90,136 91,138 92,140 92,142 93,145 93,148 94,149 95,152 95,155 96,159 97,163 97,168 98,179 98,185 98,191 99,191 102,192 104,192 106,193 108,194 110,194 110,195 112,196 114,196 116,197 117,198 119,198 120,199 121,200 123,200 124,201 125,202 127,202 128,203 129,204 131,204 132,205 132,205 134,206 134,207 136,207 136,208 138,209 138,209 140,210 140,211 142,211 142,209 142,209 141,208 140,207 140,206 139,205 138,204 138,203 137,202 136,202 135,201 134,200 134,199 133,198 132,198 132,197 131,196 131,196 129,195 129,194 128,194 127,193 127,192 126,192 125,191 123,191 123,190 122,189 121,189 120,188 119,187 118,187 117,186 116,185 115,185 114,184 112,183 111,183 110,179 110,176 109,173 108,170 108,167 107,164 107,163 106,161 105,157 105,155 104,154 103,151 103,149 102,147 101,145 101,144 100,142 99,141 99,139 98,137 97,136 97,134 96,133 95,131 95,131 94,130 93,128 93,127 92,126 92,125 91,124 90,123 90,122 89,121 88,120 88,120 87,119 86,118 86,117 85,117 84,116 84,115 83,115 "/>
    <polygon class="fil2" points="245,82 245,83 246,85 247,85 247,86 248,87 249,88 249,89 250,91 251,91 251,93 252,93 253,94 253,95 254,96 254,97 255,98 256,99 257,100 257,102 258,102 258,104 259,104 260,105 260,106 261,107 262,108 262,109 263,110 264,111 264,113 266,113 266,114 266,115 266,116 266,118 265,120 264,122 264,124 263,127 262,129 262,131 261,134 260,137 260,139 259,142 258,142 258,145 257,148 257,150 256,152 255,155 254,157 254,160 254,161 255,161 256,161 257,159 257,157 258,156 258,155 259,153 260,152 260,151 261,150 262,148 262,147 263,146 264,144 264,142 265,141 266,140 266,139 267,138 267,137 268,135 269,133 269,132 270,131 271,129 271,128 272,127 273,126 273,124 274,123 275,122 275,120 276,118 277,117 277,116 277,112 277,111 276,111 275,110 275,109 274,109 273,108 273,107 272,107 271,106 271,105 270,105 269,104 269,104 268,103 267,102 267,102 266,101 266,100 265,100 264,99 264,98 263,98 262,97 262,96 261,96 260,95 260,94 259,94 258,93 258,93 257,92 257,91 256,91 255,90 254,89 254,89 253,88 253,87 252,87 251,86 251,85 250,85 249,84 249,83 248,83 247,82 247,81 246,81 245,80 245,80 "/>
    <polygon class="fil2" points="169,30 165,31 162,31 158,32 156,33 154,33 151,34 149,35 149,35 146,36 145,37 143,37 142,38 140,39 138,39 137,40 136,41 134,41 134,42 132,43 131,43 130,44 129,44 128,45 127,46 126,46 125,47 125,48 123,48 123,49 121,50 121,50 120,51 120,53 121,53 122,52 123,52 124,51 125,50 127,50 128,49 129,48 131,48 132,47 133,46 135,46 137,45 138,44 140,44 142,43 144,43 146,42 147,41 149,41 152,40 155,39 156,39 159,38 162,37 164,37 166,36 169,35 172,35 175,34 179,33 182,33 185,32 189,31 193,31 195,30 195,30 173,30 "/>
    <polygon class="fil2" points="182,114 182,114 184,110 179,102 175,102 "/>
    <path class="fil3" d="M307 184l16 2c1,5 3,9 6,11 4,3 10,5 17,5 8,0 14,-2 18,-5 4,-3 7,-8 9,-13 1,-4 1,-11 1,-22 -8,9 -17,13 -28,13 -13,0 -24,-5 -31,-14 -8,-10 -12,-22 -12,-36 0,-9 2,-18 6,-26 3,-8 8,-14 14,-19 7,-4 15,-6 23,-6 12,0 22,5 29,14l0 -12 16 0 0 86c0,15 -2,26 -5,33 -3,6 -8,11 -15,15 -7,4 -15,6 -25,6 -12,0 -21,-3 -29,-8 -7,-6 -10,-14 -10,-24zm14 -60c0,13 2,22 8,28 5,6 11,9 19,9 8,0 14,-3 19,-9 6,-5 8,-15 8,-28 0,-12 -3,-21 -8,-27 -5,-6 -12,-9 -19,-9 -8,0 -14,3 -19,9 -6,6 -8,15 -8,27zm95 -66l0 -20 17 0 0 20 -17 0zm0 117l0 -99 17 0 0 99 -17 0zm47 0l0 -86 -15 0 0 -13 15 0 0 -10c0,-7 0,-12 2,-15 1,-5 4,-8 8,-11 4,-3 10,-4 17,-4 5,0 10,1 16,2l-3 14c-3,0 -6,-1 -9,-1 -6,0 -9,2 -11,4 -2,2 -3,6 -3,12l0 9 19 0 0 13 -19 0 0 86 -17 0zm86 -15l2 15c-5,1 -9,2 -13,2 -6,0 -10,-1 -14,-3 -3,-2 -6,-5 -7,-8 -1,-3 -2,-10 -2,-20l0 -57 -12 0 0 -13 12 0 0 -24 17 -11 0 35 17 0 0 13 -17 0 0 58c0,5 0,8 1,9 0,2 1,3 3,4 1,1 3,1 5,1 2,0 5,0 8,-1z"/>
    <path class="fil3" d="M570 51l68 0c11,0 20,3 26,9 6,6 9,13 9,22 0,8 -3,14 -7,19 -3,4 -7,7 -12,9 8,2 14,6 18,11 4,5 6,12 6,20 0,7 -1,13 -4,18 -3,5 -7,9 -12,12 -3,2 -7,4 -13,4 -9,2 -14,2 -17,2l-62 0 0 -126zm37 49l15 0c6,0 10,-1 12,-3 2,-2 3,-5 3,-9 0,-4 -1,-6 -3,-9 -2,-2 -6,-3 -12,-3l-15 0 0 24zm0 50l18 0c6,0 10,-1 13,-4 3,-2 4,-5 4,-9 0,-4 -1,-7 -4,-9 -2,-2 -7,-4 -13,-4l-18 0 0 26zm85 -36c0,-21 6,-37 16,-48 11,-12 26,-17 45,-17 19,0 34,5 44,17 11,11 16,27 16,47 0,15 -2,27 -7,36 -4,10 -11,17 -20,22 -8,6 -19,8 -32,8 -13,0 -24,-2 -33,-6 -8,-5 -15,-12 -21,-22 -5,-10 -8,-22 -8,-37zm36 0c0,13 3,22 7,28 4,5 10,8 18,8 8,0 14,-3 18,-8 4,-6 6,-15 6,-29 0,-12 -2,-21 -7,-27 -4,-5 -10,-8 -18,-8 -7,0 -13,3 -17,9 -4,5 -7,14 -7,27zm97 -63l39 0 21 39 20 -39 39 0 -36 61 40 65 -41 0 -23 -40 -23 40 -40 0 40 -66 -36 -60z"/>
    <path class="fil4" d="M605 211c0,3 -2,5 -5,6 -2,0 -5,1 -8,1l-17 0 0 9 -6 0 0 -29 23 0c8,0 13,2 13,7l0 6zm-6 -5c0,-1 -2,-2 -7,-2l-17 0 0 8 17 0c1,0 3,0 4,0 2,-1 3,-1 3,-2l0 -4zm36 21l-18 -10 -4 0 0 10 -5 0 0 -29 22 0c4,0 7,0 8,1 3,1 5,3 5,6l0 6c0,2 -1,4 -3,5 -2,1 -4,1 -6,1l-7 0 19 10 -11 0zm2 -21c0,-2 -2,-2 -7,-2l-17 0 0 8 21 -1c1,0 1,0 2,0 1,0 1,-1 1,-1l0 -4zm45 14c0,3 -1,5 -5,6 -2,0 -4,1 -7,1l-10 0c-3,0 -6,-1 -8,-2 -3,-1 -5,-2 -5,-5l0 -15c0,-3 2,-5 5,-6 2,0 5,-1 8,-1l10 0c8,0 12,2 12,7l0 15zm-5 -14c0,-1 -3,-2 -7,-2l-11 0c-4,0 -6,1 -6,2l0 13c0,1 2,2 6,2l11 0c4,0 7,-1 7,-2l0 -13zm56 21l0 -19 -18 18c-1,1 -2,1 -2,1 -1,0 -2,0 -2,-1l-18 -18 0 19 -6 0 0 -26c0,-1 0,-2 1,-2 0,-1 1,-1 2,-1 0,0 1,0 2,1l21 21 21 -21c1,-1 1,-1 2,-1 1,0 2,0 2,1 0,0 1,1 1,2l0 26 -6 0zm46 -7c0,3 -2,5 -5,6 -2,0 -5,1 -8,1l-10 0c-3,0 -5,-1 -8,-2 -3,-1 -5,-2 -5,-5l0 -15c0,-3 2,-5 5,-6 3,0 5,-1 8,-1l10 0c9,0 13,2 13,7l0 15zm-6 -14c0,-1 -2,-2 -7,-2l-10 0c-4,0 -7,1 -7,2l0 13c0,1 3,2 7,2l10 0c5,0 7,-1 7,-2l0 -13zm44 14c0,3 -1,5 -5,6 -2,0 -4,1 -7,1l-22 0 0 -6 22 0c4,0 7,-1 7,-2l0 -4c0,-2 -3,-2 -7,-2l-10 0c-8,0 -12,-2 -12,-6l0 -3c0,-4 4,-6 12,-6l21 0 0 6 -21 0c-2,0 -3,0 -4,0 -1,0 -2,1 -2,1l0 1c0,1 1,1 3,1 0,0 1,0 1,0 0,0 0,0 0,0l2 0 10 0c3,0 5,0 7,1 4,1 5,3 5,5l0 7zm4 7l0 -29 5 0 0 29 -5 0zm47 -3c0,1 0,1 -1,2 0,1 -1,1 -2,1 0,0 -1,0 -2,-1l-25 -19 0 20 -5 0 0 -26c0,-1 0,-2 0,-2 1,-1 1,-1 2,-1 1,0 1,0 2,1l25 19 0 -20 6 0 0 26zm40 -4c0,3 -2,4 -5,5 -2,1 -5,2 -8,2l-22 0 0 -29 22 0c3,0 6,1 8,1 3,1 5,3 5,6l0 15zm-6 -14c0,-2 -2,-2 -6,-2l-18 0 0 17 17 0c1,0 3,0 4,-1 2,0 3,-1 3,-2l0 -12zm46 14c0,3 -2,5 -5,6 -2,0 -5,1 -8,1l-10 0c-2,0 -5,-1 -8,-2 -3,-1 -4,-2 -4,-5l0 -15c0,-3 1,-5 4,-6 3,0 5,-1 8,-1l10 0c9,0 13,2 13,7l0 15zm-6 -14c0,-1 -2,-2 -7,-2l-10 0c-4,0 -7,1 -7,2l0 13c0,1 3,2 7,2l10 0c5,0 7,-1 7,-2l0 -13z"/>
   </g>
  </g>
 </g>
</svg>
