<?xml version="1.0" encoding="utf-8"?>
<!-- Generator: Adobe Illustrator 22.0.0, SVG Export Plug-In . SVG Version: 6.00 Build 0)  -->
<svg version="1.1" id="Capa_1" xmlns="http://www.w3.org/2000/svg" xmlns:xlink="http://www.w3.org/1999/xlink" x="0px" y="0px"
	 viewBox="0 0 100 100" style="enable-background:new 0 0 100 100;" xml:space="preserve">
<style type="text/css">
	.st0{fill:#D5D5FF;}
	.st1{fill:#B1B1FA;}
	.st2{fill:#C5E9FF;}
	.st3{fill:#90CBF8;}
</style>
<g>
	<g id="XMLID_5182_">
		<g id="XMLID_5202_">
			<g id="XMLID_5219_">
				<g id="XMLID_5220_">
					<g>
						<g>
							<g>
								<path class="st0" d="M32.7,55.1c-2-2.3-3.6-4.9-4.5-7.7c-2.6-8.2,5.4-14.6,12.8-13.6c1,1.4,2.4,2.8,3.7,3.2
									c0.1,0.3,0.2,0.7,0.2,1c0.6,3.7,1.9,8.7,3.9,7.8c0.9-0.4,1.6-1,2.1-1.6c0.9-1,0.4-2.7,0.3-3.9c-0.1-1.8-0.2-3.6-0.6-5.4
									c-0.7-3.8-4.4-8.1-7.1-10.7c-0.5-0.5-1.1-1-1.8-1.3c-2.5-0.9-5.6,0.8-8,1.4c-4.6,1.2-9.8,3.4-14,5c-3.3,1.3-4.1,5.2-6.1,8
									c-2.3,3.3-4.8,6.5-7.9,9.1c-1.3,1.1-2.6,2.1-4,3.1c-2.7,6-2.2,12,0.2,16.6c1.7,1.3,3.5,2.2,6.2,1.9c0.5-0.1,1-0.2,1.5-0.3
									c2-1.7,4.1-3.2,6.4-4.3c0.2,0.1,0.5,0.3,0.7,0.4c4.5,2.7,9.2,1.1,14.2,2.5c4.3,1.2,10.4,4.4,14.6,6.1
									c4.5,1.8,6.8,1.1,4.7-4.2C47.2,61,38,60.2,32.7,55.1z"/>
							</g>
						</g>
					</g>
				</g>
			</g>
			<g id="XMLID_5217_">
				<g id="XMLID_5218_">
					<g>
						<g>
							<g>
								<path class="st1" d="M41.6,34.6c0.9,1.1,2,2,3,2.3c0.1,0.3,0.2,0.7,0.2,1c0.6,3.7,1.9,8.7,3.9,7.8c0.3-0.2,0.7-0.3,0.9-0.5
									c0,0,0-0.1,0-0.1C49.8,39.1,46.3,35.5,41.6,34.6z"/>
							</g>
						</g>
					</g>
				</g>
			</g>
			<g id="XMLID_5215_">
				<g id="XMLID_5216_">
					<g>
						<g>
							<g>
								<path class="st1" d="M25.7,27.7c4-0.8,5.7-0.8,8.8-1.6c2.6-0.7,3.9-1.4,6-1.9c1.1-0.3,2.1-0.1,2.7,0.9
									c2.1,3.5,5.3,6.2,7.2,9.5c-0.9-3.7-4.4-7.8-7-10.4c-0.5-0.5-1.1-1-1.8-1.3c-2.5-0.9-5.6,0.8-8,1.4
									C30.5,25.2,23.3,28,20,29.3C20.6,29.2,25,27.8,25.7,27.7z"/>
							</g>
						</g>
					</g>
				</g>
			</g>
			<g id="XMLID_5213_">
				<g id="XMLID_5214_">
					<g>
						<g>
							<g>
								<path class="st1" d="M32.1,36c-2.8,1.2-4.3,3.6-5.6,6.3c-2.2,4.5-0.9,7.7,3,10.4c1.4,1,3.1,3.3,5.1,3.8
									c-0.6-0.5-1.3-1-1.8-1.5c-2-2.3-3.7-4.9-4.5-7.7C26.6,42.6,28.7,38.5,32.1,36z"/>
							</g>
						</g>
					</g>
				</g>
			</g>
			<g id="XMLID_5211_">
				<g id="XMLID_5212_">
					<g>
						<g>
							<g>
								<path class="st1" d="M8.2,68.2c0.5-0.1,1-0.2,1.5-0.3c1.7-1.5,3.5-2.9,5.6-3.9C12,61.5,7,64.4,3.4,67.2
									C4.7,68,6.2,68.4,8.2,68.2z"/>
							</g>
						</g>
					</g>
				</g>
			</g>
			<g id="XMLID_5209_">
				<g id="XMLID_5210_">
					<g>
						<g>
							<g>
								<path class="st1" d="M48.9,73.2c-0.2,0-0.3-0.1-0.4-0.3c-1-2.4-3.3-3.2-4.1-2.9c-0.1,0-0.4,0.2-0.2,0.8
									c0.1,0.2,0,0.5-0.3,0.6c-0.2,0.1-0.5,0-0.6-0.3c-0.4-1,0.1-1.7,0.7-1.9c1.3-0.5,4,0.5,5.2,3.3c0.1,0.2,0,0.5-0.2,0.6
									C49,73.2,48.9,73.2,48.9,73.2z"/>
							</g>
						</g>
					</g>
				</g>
			</g>
			<g id="XMLID_5207_">
				<g id="XMLID_5208_">
					<g>
						<g>
							<g>
								<path class="st1" d="M36.3,67.8c-0.1,0-0.2,0-0.3-0.1c-0.2-0.2-0.2-0.4,0-0.6c1.1-1.1,3-2,3.1-2c0.2-0.1,0.5,0,0.6,0.2
									c0.1,0.2,0,0.5-0.2,0.6c0,0-1.8,0.9-2.8,1.8C36.5,67.8,36.4,67.8,36.3,67.8z"/>
							</g>
						</g>
					</g>
				</g>
			</g>
			<g id="XMLID_5205_">
				<g id="XMLID_5206_">
					<g>
						<g>
							<g>
								<path class="st1" d="M30.2,36.6c-1.1,0.1-2.3,0-3.4-0.3c-0.2-0.1-0.4-0.3-0.3-0.5c0.1-0.2,0.3-0.4,0.5-0.3
									c2.3,0.5,4.5,0.1,5.1-0.1c0,0,0,0,0,0c0.1-0.2,0.4-0.3,0.6-0.2c0.2,0.1,0.3,0.4,0.2,0.6C32.7,36.2,31.6,36.5,30.2,36.6z"/>
							</g>
						</g>
					</g>
				</g>
			</g>
			<g id="XMLID_5203_">
				<g id="XMLID_5204_">
					<g>
						<g>
							<g>
								<path class="st1" d="M41,34.2c-0.2,0-0.4-0.1-0.4-0.3c0-0.1-0.6-1.9,0.1-3.6c0.1-0.2,0.3-0.3,0.6-0.2
									c0.2,0.1,0.3,0.3,0.2,0.6c-0.6,1.4-0.1,3-0.1,3.1C41.4,33.9,41.3,34.1,41,34.2C41,34.2,41,34.2,41,34.2z"/>
							</g>
						</g>
					</g>
				</g>
			</g>
		</g>
		<g id="XMLID_5183_">
			<g id="XMLID_5200_">
				<g id="XMLID_5201_">
					<g>
						<g>
							<g>
								<path class="st2" d="M94.2,70c3.5-0.2,4.9-2.9,5.5-6.5c0.2-1.7,0.3-3.4,0.3-5.1c-0.5-3.5-1.6-6.9-2.2-10.4
									c-0.6-0.4-1.1-0.9-1.6-1.4c-3-2.6-5.5-5.9-7.8-9.2c-1.9-2.8-2.8-6.7-6-8c-4.3-1.7-9.5-3.9-14-5.1c-2.4-0.6-5.5-2.3-8-1.5
									c-0.7,0.2-1.3,0.7-1.8,1.3c-2.7,2.6-6.4,6.9-7.1,10.7c-0.3,1.8-0.5,3.6-0.6,5.4c-0.1,1.2-0.6,2.9,0.3,3.9
									c0.5,0.6,1.2,1.2,2.1,1.6c1.9,0.9,3.3-4.1,3.9-7.8c0.1-0.3,0.2-0.7,0.2-1c1.3-0.4,2.7-1.7,3.7-3.2
									c7.4-0.9,15.4,5.4,12.8,13.6c-0.9,2.8-2.5,5.4-4.6,7.7c-5.3,5.1-14.6,5.9-17.6,13.3c-2.2,5.3,0.2,6,4.7,4.2
									c4.1-1.6,10.3-4.8,14.6-6c5-1.4,9.7,0.2,14.2-2.5c0.2-0.1,0.5-0.3,0.7-0.4C89,65.2,91.7,67.4,94.2,70z"/>
							</g>
						</g>
					</g>
				</g>
			</g>
			<g id="XMLID_5198_">
				<g id="XMLID_5199_">
					<g>
						<g>
							<g>
								<path class="st3" d="M60.4,34.7c-0.9,1.1-2,2-3,2.3c-0.1,0.3-0.2,0.7-0.2,1c-0.6,3.7-2,8.7-3.9,7.8
									c-0.3-0.2-0.7-0.3-0.9-0.5c0,0,0-0.1,0-0.1C52.2,39.1,55.7,35.6,60.4,34.7z"/>
							</g>
						</g>
					</g>
				</g>
			</g>
			<g id="XMLID_5196_">
				<g id="XMLID_5197_">
					<g>
						<g>
							<g>
								<path class="st3" d="M76.3,27.8c-4-0.8-5.7-0.8-8.8-1.7c-2.6-0.7-3.9-1.4-6-1.9c-1.1-0.3-2.1-0.1-2.7,0.9
									c-2.1,3.5-5.4,6.2-7.2,9.5c0.9-3.7,4.4-7.8,7-10.4c0.5-0.5,1.1-1,1.8-1.3c2.5-0.9,5.6,0.8,8,1.5c3.2,0.9,10.4,3.7,13.7,5
									C81.4,29.3,77,27.9,76.3,27.8z"/>
							</g>
						</g>
					</g>
				</g>
			</g>
			<g id="XMLID_5194_">
				<g id="XMLID_5195_">
					<g>
						<g>
							<g>
								<path class="st3" d="M69.9,36.1c2.8,1.2,5.5,3,6.9,5.7c2.2,4.5-0.4,9.1-4.2,11.7c-1.4,1-3.2,1.6-5.1,3.1
									c0.6-0.5,1.3-1,1.8-1.5c2-2.3,3.7-4.9,4.6-7.7C75.3,42.7,73.3,38.6,69.9,36.1z"/>
							</g>
						</g>
					</g>
				</g>
			</g>
			<g id="XMLID_5192_">
				<g id="XMLID_5193_">
					<g>
						<g>
							<g>
								<path class="st3" d="M94.2,70c2.1-0.1,3.4-1.1,4.3-2.6c-3.7-2.8-8.6-5.7-11.8-3.2C89.5,65.6,91.9,67.7,94.2,70z"/>
							</g>
						</g>
					</g>
				</g>
			</g>
			<g id="XMLID_5190_">
				<g id="XMLID_5191_">
					<g>
						<g>
							<g>
								<path class="st3" d="M53,73.3c0.2,0,0.3-0.1,0.4-0.3c1.1-2.4,3.3-3.2,4.1-2.9c0.1,0,0.4,0.2,0.2,0.8c-0.1,0.2,0,0.5,0.3,0.6
									c0.2,0.1,0.5,0,0.6-0.3c0.4-1-0.1-1.7-0.7-1.9c-1.3-0.5-4,0.5-5.2,3.3c-0.1,0.2,0,0.5,0.2,0.6C52.9,73.3,52.9,73.3,53,73.3z
									"/>
							</g>
						</g>
					</g>
				</g>
			</g>
			<g id="XMLID_5188_">
				<g id="XMLID_5189_">
					<g>
						<g>
							<g>
								<path class="st3" d="M65.6,67.9c0.1,0,0.2,0,0.3-0.1c0.2-0.2,0.2-0.4,0-0.6c-1.1-1.1-3-2-3.1-2c-0.2-0.1-0.5,0-0.6,0.2
									c-0.1,0.2,0,0.5,0.2,0.6c0,0,1.8,0.9,2.8,1.8C65.4,67.9,65.5,67.9,65.6,67.9z"/>
							</g>
						</g>
					</g>
				</g>
			</g>
			<g id="XMLID_5186_">
				<g id="XMLID_5187_">
					<g>
						<g>
							<g>
								<path class="st3" d="M71.8,36.7c1.1,0.1,2.3,0,3.4-0.2c0.2-0.1,0.4-0.3,0.3-0.5c-0.1-0.2-0.3-0.4-0.5-0.3
									c-2.3,0.5-4.5,0.1-5.1-0.1c0,0,0,0,0,0c-0.1-0.2-0.4-0.3-0.6-0.2c-0.2,0.1-0.3,0.4-0.2,0.6C69.2,36.3,70.4,36.6,71.8,36.7z"
									/>
							</g>
						</g>
					</g>
				</g>
			</g>
			<g id="XMLID_5184_">
				<g id="XMLID_5185_">
					<g>
						<g>
							<g>
								<path class="st3" d="M61,34.3c0.2,0,0.4-0.1,0.4-0.3c0-0.1,0.6-1.9-0.1-3.6c-0.1-0.2-0.3-0.3-0.6-0.2
									c-0.2,0.1-0.3,0.3-0.2,0.6c0.6,1.4,0.1,3,0.1,3.1C60.6,33.9,60.7,34.2,61,34.3C60.9,34.3,61,34.3,61,34.3z"/>
							</g>
						</g>
					</g>
				</g>
			</g>
		</g>
	</g>
	<g id="XMLID_5178_">
		<g id="XMLID_5181_">
			<g>
				<g>
					<g>
						<path class="st2" d="M34.2,14.2c-2.1-3.4-4.1-7.6-7.4-10.1c-0.9-0.7-1.8,0.6-1.4,1.4c1.9,3.5,5.4,6.3,7.9,9.4
							C33.7,15.3,34.5,14.7,34.2,14.2z"/>
					</g>
				</g>
			</g>
		</g>
		<g id="XMLID_5180_">
			<g>
				<g>
					<g>
						<path class="st2" d="M66,14.2c2.1-3.4,4.1-7.6,7.4-10.1c0.9-0.7,1.8,0.6,1.4,1.4c-1.9,3.5-5.4,6.3-7.9,9.4
							C66.5,15.3,65.7,14.7,66,14.2z"/>
					</g>
				</g>
			</g>
		</g>
		<g id="XMLID_5179_">
			<g>
				<g>
					<g>
						<path class="st2" d="M51.6,1.9c-0.1-1.9-2.5-2.1-2.7-0.2c-0.7,5.3,0.1,11.9,1,17.2c0.1,0.6,0.9,0.5,0.9-0.1
							C51.2,13.4,51.9,7.4,51.6,1.9z"/>
					</g>
				</g>
			</g>
		</g>
	</g>
	<g id="XMLID_5174_">
		<g id="XMLID_5177_">
			<g>
				<g>
					<g>
						<path class="st2" d="M66,85.8c2.1,3.4,4.1,7.6,7.4,10.1c0.9,0.7,1.8-0.6,1.4-1.4c-1.9-3.5-5.4-6.3-7.9-9.4
							C66.5,84.7,65.7,85.3,66,85.8z"/>
					</g>
				</g>
			</g>
		</g>
		<g id="XMLID_5176_">
			<g>
				<g>
					<g>
						<path class="st2" d="M34.2,85.8c-2.1,3.4-4.1,7.6-7.4,10.1c-0.9,0.7-1.8-0.6-1.4-1.4c1.9-3.5,5.4-6.3,7.9-9.4
							C33.7,84.7,34.5,85.3,34.2,85.8z"/>
					</g>
				</g>
			</g>
		</g>
		<g id="XMLID_5175_">
			<g>
				<g>
					<g>
						<path class="st2" d="M48.6,98.1c0.1,1.9,2.5,2.1,2.7,0.2c0.7-5.3-0.1-11.9-1-17.2c-0.1-0.6-0.9-0.5-0.9,0.1
							C49,86.6,48.3,92.6,48.6,98.1z"/>
					</g>
				</g>
			</g>
		</g>
	</g>
</g>
</svg>
