<?xml version="1.0" encoding="UTF-8"?>
<svg width="134px" height="27px" viewBox="0 0 134 27" version="1.1" xmlns="http://www.w3.org/2000/svg" xmlns:xlink="http://www.w3.org/1999/xlink">
    <!-- Generator: Sketch 54.1 (76490) - https://sketchapp.com -->
    <title>slidesgo-inverted</title>
    <desc>Created with Sketch.</desc>
    <g id="Page-1" stroke="none" stroke-width="1" fill="none" fill-rule="evenodd">
        <g id="slidesgo-inverted" fill="#FFFFFF" fill-rule="nonzero">
            <g id="Group">
                <path d="M25.1852459,3.00983606 L8.85245902,0.309836065 C8.80819672,0.309836065 8.76393442,0.309836065 8.67540982,0.309836065 C8.1442623,0.309836065 7.70163937,0.708196721 7.70163937,1.28360656 L7.70163937,2.56721311 L22.5737705,5.00163934 C23.6360656,5.17868852 24.4327869,6.10819672 24.4327869,7.2147541 L24.4327869,20.0065573 L25.6721311,20.2278689 C25.7163934,20.2278689 25.7606557,20.2278689 25.8491803,20.2278689 C26.3803279,20.2278689 26.8229508,19.8295082 26.8229508,19.2540983 L26.8229508,4.91311475 C26.7786885,3.93934426 26.1147541,3.14262295 25.1852459,3.00983606 Z" id="Path"></path>
                <path d="M21.4672131,6.37377049 L5.09016394,3.67377049 C5.04590164,3.67377049 5.00163934,3.67377049 4.91311475,3.67377049 C4.38196721,3.67377049 3.93934426,4.07213115 3.93934426,4.64754098 L3.93934426,5.97540983 L18.6786885,8.4098361 C19.7409836,8.58688523 20.537705,9.51639345 20.537705,10.6229508 L20.537705,23.4590164 L21.7770492,23.6803279 C21.8213115,23.6803279 21.8655738,23.6803279 21.9540983,23.6803279 C22.4852459,23.6803279 22.9278688,23.2819673 22.9278688,22.7065574 L22.9278688,8.1 C22.9278688,7.25901639 22.3081967,6.50655738 21.4672131,6.37377049 Z" id="Path"></path>
                <path d="M17.6163935,9.60491805 L1.28360656,6.90491803 C1.23934426,6.90491803 1.19508196,6.90491803 1.10655738,6.90491803 C0.575409836,6.90491803 0.132786885,7.30327869 0.132786885,7.8786885 L0.132786885,22.7508196 C0.132786885,23.4147541 0.619672131,23.9901639 1.28360656,24.0786885 L18.0147541,26.8672131 C18.0590164,26.8672131 18.1032787,26.8672131 18.1918033,26.8672131 C18.7229508,26.8672131 19.1655738,26.4688525 19.1655738,25.8934426 L19.1655738,11.4196721 C19.1213115,10.5344262 18.5016394,9.78196725 17.6163935,9.60491805 Z M7.52459018,19.8295082 C7.52459018,20.1393442 7.12622951,20.2721311 6.90491804,20.0508197 L2.92131148,16.3770492 C2.7,16.2 2.7,15.8459017 2.92131148,15.7573771 L6.90491804,13.4557377 C7.17049181,13.3229508 7.52459018,13.5442623 7.52459018,13.8983606 L7.52459018,19.8295082 Z M15.8901639,18.5016394 L11.9065574,20.8918033 C11.6409836,21.0688525 11.2868852,20.8032787 11.2868852,20.4491803 L11.2868852,14.4737705 C11.2868852,14.1639344 11.6409836,14.0311475 11.9065574,14.252459 L15.8901639,17.8377049 C16.1114754,18.0590164 16.1114754,18.3688525 15.8901639,18.5016394 Z" id="Shape"></path>
            </g>
            <g id="Group" transform="translate(33.196721, 0.000000)">
                <path d="M11.0213115,11.0213115 C9.91475408,10.4901639 8.1885246,9.91475408 6.63934427,9.91475408 C5.22295082,9.91475408 4.5147541,10.4016394 4.5147541,11.1540983 C4.5147541,11.9508196 5.48852459,12.1278689 6.77213115,12.3491804 L8.0114754,12.5262295 C10.9770492,12.9688525 12.6590164,14.2967213 12.6590164,16.6426229 C12.6590164,19.4754098 10.3131148,21.3344262 6.3295082,21.3344262 C4.47049181,21.3344262 1.99180328,20.9803279 0.221311475,19.6967213 L1.68196721,16.8639344 C2.87704918,17.6606557 4.29344262,18.2360656 6.3737705,18.2360656 C8.1,18.2360656 8.94098363,17.7491803 8.94098363,16.952459 C8.94098363,16.2885246 8.2327869,15.9344262 6.63934427,15.6688525 L5.53278689,15.4918033 C2.34590164,15.0491803 0.752459017,13.6770492 0.752459017,11.3311475 C0.752459017,8.49836063 2.92131148,6.81639344 6.55081967,6.81639344 C8.76393443,6.81639344 10.4901639,7.2147541 12.3049181,8.1442623 L11.0213115,11.0213115 Z" id="Path"></path>
                <polygon id="Path" points="18.2803279 20.9803279 14.562295 20.9803279 14.562295 0.486885246 18.2803279 0.486885246"></polygon>
                <path d="M24.8311475,2.56721311 C24.8754098,4.20491803 23.4147541,5.4 21.6885246,4.91311475 C21.0688525,4.73606557 20.404918,4.07213115 20.2278689,3.45245902 C19.6967213,1.7262295 20.8918033,0.221311475 22.5295082,0.265573771 C23.7688525,0.309836065 24.7868852,1.32786885 24.8311475,2.56721311 Z M24.3442623,20.9360656 L20.6262295,20.9360656 L20.6262295,7.1704918 L24.3442623,7.1704918 L24.3442623,20.9360656 Z" id="Shape"></path>
                <path d="M36.6491804,8.58688522 L36.6491804,0.442622951 L40.3672131,0.442622951 L40.3672131,20.9360656 L36.737705,20.9360656 L36.737705,19.4311475 C35.852459,20.5377049 34.5245902,21.2901639 32.6213115,21.2901639 C28.8147541,21.2901639 25.937705,18.1918033 25.937705,14.0311475 C25.937705,9.87049177 28.8147541,6.77213115 32.6213115,6.77213115 C34.4803279,6.77213115 35.7639344,7.52459017 36.6491804,8.58688522 Z M29.7442623,14.0311475 C29.7442623,16.1557377 31.1163935,17.8377049 33.2852459,17.8377049 C35.4098361,17.8377049 36.8262295,16.2 36.8262295,14.0311475 C36.8262295,11.862295 35.4098361,10.2245902 33.2852459,10.2245902 C31.1163935,10.2245902 29.7442623,11.9508196 29.7442623,14.0311475 Z" id="Shape"></path>
                <path d="M55.8147541,14.0311475 C55.8147541,14.4737705 55.7704918,14.9606558 55.7262295,15.2704918 L45.9442623,15.2704918 C46.3426229,17.262295 47.7147541,18.147541 49.4852459,18.147541 C50.6803279,18.147541 51.9639344,17.6606558 52.9819672,16.8196721 L55.1508196,19.2098361 C53.6016394,20.6262295 51.6098361,21.2901639 49.2639344,21.2901639 C45.0590164,21.2901639 42.0934427,18.4131148 42.0934427,14.0754098 C42.0934427,9.73770495 44.9262295,6.77213115 49.0426229,6.77213115 C53.0704918,6.77213115 55.7704918,9.73770495 55.8147541,14.0311475 Z M45.9885246,12.747541 L52.0967213,12.747541 C51.7426229,10.9770492 50.6803279,10.0032787 49.0868852,10.0032787 C47.3163934,10.0032787 46.2983606,11.0213115 45.9885246,12.747541 Z" id="Shape"></path>
                <path d="M67.5885246,11.0213115 C66.4819672,10.4901639 64.7557377,9.91475408 63.2065573,9.91475408 C61.7901639,9.91475408 61.0819672,10.4016394 61.0819672,11.1540983 C61.0819672,11.9508196 62.0557377,12.1278689 63.3393442,12.3491804 L64.5786885,12.5262295 C67.5442623,12.9688525 69.2262295,14.2967213 69.2262295,16.6426229 C69.2262295,19.4754098 66.8803279,21.3344262 62.8967213,21.3344262 C61.0377049,21.3344262 58.5590164,20.9803279 56.7885246,19.6967213 L58.2491804,16.8639344 C59.4442623,17.6606557 60.8606557,18.2360656 62.9409836,18.2360656 C64.6672131,18.2360656 65.5081967,17.7491803 65.5081967,16.952459 C65.5081967,16.2885246 64.8,15.9344262 63.2065573,15.6688525 L62.1,15.4918033 C58.9131148,15.0491803 57.3196721,13.6770492 57.3196721,11.3311475 C57.3196721,8.49836063 59.4885246,6.81639344 63.1180327,6.81639344 C65.3311475,6.81639344 67.0573771,7.2147541 68.8721312,8.1442623 L67.5885246,11.0213115 Z" id="Path"></path>
                <path d="M82.1065575,9.47213115 L82.1065575,7.43606557 L84.2311478,7.43606557 L84.2311478,19.962295 C84.2311478,24.3442623 81.2655735,26.7786885 77.1049177,26.7786885 C74.9360656,26.7786885 72.8114754,26.1147541 71.4393443,24.9639344 L72.3688525,23.237705 C73.652459,24.2114754 75.2901638,24.8311475 77.1049177,24.8311475 C80.0262293,24.8311475 82.1065575,23.1491804 82.1065575,20.0065574 L82.1065575,18.6344262 C81.0885248,20.0508197 79.4950822,20.9360656 77.2819673,20.9360656 C73.5196721,20.9360656 70.5983606,18.1032787 70.5983606,14.0311475 C70.5983606,9.95901638 73.4754098,7.12622951 77.2819673,7.12622951 C79.4950822,7.2147541 81.0885248,8.1 82.1065575,9.47213115 Z M72.8114754,14.1196721 C72.8114754,16.8639344 74.7147541,19.0327869 77.5475407,19.0327869 C80.4245903,19.0327869 82.4606558,16.7311475 82.2836062,13.7655738 C82.1508195,11.1983606 79.9819672,9.16229505 77.414754,9.20655735 C74.6704918,9.25081965 72.8114754,11.4196721 72.8114754,14.1196721 Z" id="Shape"></path>
                <path d="M100.032787,14.1196721 C100.032787,18.1032787 96.9786885,21.1131148 92.9508195,21.1131148 C88.9229505,21.1131148 85.8688523,18.1032787 85.8688523,14.1196721 C85.8688523,10.1360656 88.8786885,7.12622951 92.9508195,7.12622951 C97.0229505,7.12622951 100.032787,10.1360656 100.032787,14.1196721 Z M88.0377053,14.1196721 C88.0377053,17.0409836 90.1622948,19.1213115 92.9508195,19.1213115 C95.7393442,19.1213115 97.8639345,16.9967213 97.8639345,14.1196721 C97.8639345,11.1983606 95.7393442,9.11803275 92.9508195,9.11803275 C90.1622948,9.11803275 88.0377053,11.1983606 88.0377053,14.1196721 Z" id="Shape"></path>
            </g>
        </g>
    </g>
</svg>