<?xml version="1.0" encoding="UTF-8"?>
<!DOCTYPE svg PUBLIC "-//W3C//DTD SVG 1.1//EN" "http://www.w3.org/Graphics/SVG/1.1/DTD/svg11.dtd">
<!-- Creator: CorelDRAW X7 -->
<svg xmlns="http://www.w3.org/2000/svg" xml:space="preserve" version="1.1" style="shape-rendering:geometricPrecision; text-rendering:geometricPrecision; image-rendering:optimizeQuality; fill-rule:evenodd; clip-rule:evenodd"
viewBox="0 0 1000 250"
 xmlns:xlink="http://www.w3.org/1999/xlink">
 <defs>
  <style type="text/css">
   <![CDATA[
    .fil0 {fill:none}
    .fil3 {fill:#003082}
    .fil4 {fill:#FEFEFE}
    .fil1 {fill:#373435;fill-rule:nonzero}
    .fil2 {fill:#969491;fill-rule:nonzero}
   ]]>
  </style>
 </defs>
 <g id="Layer_x0020_1">
  <metadata id="CorelCorpID_0Corel-Layer"/>
  <g id="_221761288">
   <polygon class="fil0" points="0,0 1000,0 1000,250 0,250 "/>
   <path class="fil1" d="M307 184l16 2c1,5 3,9 6,11 4,3 10,5 17,5 8,0 14,-2 18,-5 4,-3 7,-8 9,-13 1,-4 1,-11 1,-22 -8,9 -17,13 -28,13 -13,0 -24,-5 -31,-14 -8,-10 -12,-22 -12,-36 0,-9 2,-18 6,-26 3,-8 8,-14 14,-19 7,-4 15,-6 23,-6 12,0 22,5 29,14l0 -12 16 0 0 86c0,15 -2,26 -5,33 -3,6 -8,11 -15,15 -7,4 -15,6 -25,6 -12,0 -21,-3 -29,-8 -7,-6 -10,-14 -10,-24l0 0zm14 -60c0,13 2,22 8,28 5,6 11,9 19,9 8,0 14,-3 19,-9 6,-5 8,-15 8,-28 0,-12 -3,-21 -8,-27 -5,-6 -12,-9 -19,-9 -8,0 -14,3 -19,9 -6,6 -8,15 -8,27zm95 -66l0 -20 17 0 0 20 -17 0zm0 117l0 -99 17 0 0 99 -17 0 0 0zm47 0l0 -86 -15 0 0 -13 15 0 0 -10c0,-20 6,-30 27,-30 5,0 10,1 16,2l-3 14c-3,0 -6,-1 -9,-1 -6,0 -9,2 -11,4 -2,2 -3,6 -3,12l0 9 19 0 0 13 -19 0 0 86 -17 0 0 0zm86 -15l2 15c-5,1 -9,2 -13,2 -6,0 -10,-1 -14,-3 -3,-2 -6,-5 -7,-8 -1,-3 -2,-10 -2,-20l0 -57 -12 0 0 -13 12 0 0 -24 17 -11 0 35 17 0 0 13 -17 0 0 58c0,5 0,8 1,9 0,2 1,3 3,4 1,1 3,1 5,1 2,0 5,0 8,-1l0 0z"/>
   <path class="fil1" d="M570 51l68 0c11,0 20,3 26,9 6,6 9,13 9,22 0,8 -3,14 -7,19 -3,4 -7,7 -12,9 8,2 14,6 18,11 4,5 6,12 6,20 0,7 -1,13 -4,18 -3,5 -7,9 -12,12 -3,2 -7,4 -13,4 -9,2 -14,2 -17,2l-62 0 0 -126 0 0zm37 49l15 0c6,0 10,-1 12,-3 2,-2 3,-5 3,-9 0,-4 -1,-6 -3,-9 -2,-2 -6,-3 -12,-3l-15 0 0 24 0 0zm0 50l18 0c6,0 10,-1 13,-4 3,-2 4,-5 4,-9 0,-4 -1,-7 -4,-9 -2,-2 -7,-4 -13,-4l-18 0 0 26zm85 -36c0,-21 6,-37 16,-48 11,-12 26,-17 45,-17 19,0 34,5 44,17 11,11 16,27 16,47 0,15 -2,27 -7,36 -4,10 -11,17 -20,22 -8,6 -19,8 -32,8 -13,0 -24,-2 -33,-6 -8,-5 -15,-12 -21,-22 -5,-10 -8,-22 -8,-37l0 0zm36 0c0,13 3,22 7,28 4,5 10,8 18,8 8,0 14,-3 18,-8 4,-6 6,-15 6,-29 0,-12 -2,-21 -7,-27 -4,-5 -10,-8 -18,-8 -7,0 -13,3 -17,9 -4,5 -7,14 -7,27zm97 -63l39 0 21 39 20 -39 39 0 -36 61 40 65 -41 0 -23 -40 -23 40 -40 0 40 -66 -36 -60 0 0z"/>
   <path class="fil2" d="M605 211c0,6 -8,7 -13,7l-17 0 0 9 -6 0 0 -29 23 0c8,0 13,2 13,7l0 6 0 0zm-6 -5c0,-1 -2,-2 -7,-2l-17 0 0 8 17 0c1,0 7,0 7,-2l0 -4zm36 21l-18 -10 -4 0 0 10 -5 0 0 -29 22 0c5,0 13,0 13,7l0 6c0,2 -1,4 -3,5 -2,1 -4,1 -6,1l-7 0 19 10 -11 0zm2 -21c0,-2 -2,-2 -7,-2l-17 0 0 8 21 -1c1,0 1,0 2,0 1,0 1,-1 1,-1l0 -4 0 0zm45 14c0,6 -7,7 -12,7l-10 0c-4,0 -13,-2 -13,-7l0 -15c0,-6 8,-7 13,-7l10 0c8,0 12,2 12,7l0 15zm-5 -14c0,-1 -3,-2 -7,-2l-11 0c-4,0 -6,1 -6,2l0 13c0,1 2,2 6,2l11 0c4,0 7,-1 7,-2l0 -13zm56 21l0 -19 -18 18c-1,1 -2,1 -2,1 -1,0 -2,0 -2,-1l-18 -18 0 19 -6 0 0 -26c0,-2 1,-3 3,-3 0,0 1,0 2,1l21 21 21 -21c1,-1 1,-1 2,-1 2,0 3,1 3,3l0 26 -6 0 0 0zm46 -7c0,6 -8,7 -13,7l-10 0c-4,0 -13,-2 -13,-7l0 -15c0,-6 8,-7 13,-7l10 0c9,0 13,2 13,7l0 15zm-6 -14c0,-1 -2,-2 -7,-2l-10 0c-4,0 -7,1 -7,2l0 13c0,1 3,2 7,2l10 0c5,0 7,-1 7,-2l0 -13zm44 14c0,6 -7,7 -12,7l-22 0 0 -6 22 0c4,0 7,-1 7,-2l0 -4c0,-2 -3,-2 -7,-2l-10 0c-8,0 -12,-2 -12,-6l0 -3c0,-4 4,-6 12,-6l21 0 0 6 -21 0c-2,0 -3,0 -4,0 -1,0 -2,1 -2,1l0 1c0,1 1,1 3,1 0,0 1,0 1,0 0,0 0,0 0,0l2 0 10 0c3,0 5,0 7,1 4,1 5,3 5,5l0 7 0 0zm4 7l0 -29 5 0 0 29 -5 0zm47 -3c0,1 0,1 -1,2 0,1 -1,1 -2,1 0,0 -1,0 -2,-1l-25 -19 0 20 -5 0 0 -26c0,-1 0,-2 0,-2 1,-1 1,-1 2,-1 1,0 1,0 2,1l25 19 0 -20 6 0 0 26zm40 -4c0,5 -9,7 -13,7l-22 0 0 -29 22 0c5,0 13,1 13,7l0 15 0 0zm-6 -14c0,-2 -2,-2 -6,-2l-18 0 0 17 17 0c1,0 3,0 4,-1 2,0 3,-1 3,-2l0 -12 0 0zm46 14c0,3 -2,5 -5,6 -2,0 -5,1 -8,1l-10 0c-4,0 -12,-2 -12,-7l0 -15c0,-6 7,-7 12,-7l10 0c9,0 13,2 13,7l0 15zm-6 -14c0,-1 -2,-2 -7,-2l-10 0c-4,0 -7,1 -7,2l0 13c0,1 3,2 7,2l10 0c5,0 7,-1 7,-2l0 -13z"/>
   <path class="fil3" d="M162 15c61,0 110,49 110,110 0,61 -49,110 -110,110 -61,0 -110,-49 -110,-110 0,-61 49,-110 110,-110z"/>
   <path class="fil4" d="M86 77c6,9 31,73 31,98 8,2 39,33 39,37 -1,-2 69,-21 76,-21 -1,-5 20,-60 26,-65 1,-1 1,-2 0,-3 -9,-9 -13,-25 -22,-34 0,-37 -3,-38 -34,-38 -4,-3 -8,-11 -11,-11 -28,5 -80,22 -105,37z"/>
   <path class="fil3" d="M188 86c6,1 11,4 19,4 6,0 11,0 17,0 -1,-4 -13,-7 -18,-7 -2,0 -5,0 -7,0 -4,0 -9,1 -11,3z"/>
   <path class="fil3" d="M208 125c0,0 1,0 1,0 12,-2 25,-3 37,-5 -5,-8 -11,-17 -16,-25 -24,2 -24,2 -39,-1 1,4 15,31 17,31z"/>
   <path class="fil3" d="M147 146c5,19 8,38 11,57 9,-4 19,-7 28,-11 1,-18 2,-34 4,-52 0,-1 0,-1 0,-2 -14,2 -30,4 -43,8zm21 -50c-6,4 -8,19 -23,18 -2,0 -6,-7 -7,-9 -4,3 -9,6 -13,9 6,8 13,17 19,25 9,-2 17,-4 26,-6 4,-1 8,-2 12,-3 2,0 5,-1 7,-1 -6,-14 -10,-22 -21,-33zm78 31c-13,2 -25,4 -38,6 -2,19 -5,38 -7,57 7,-1 15,-2 22,-3 0,-21 13,-41 23,-60zm-57 65c3,-1 7,-1 10,-2 0,-2 0,-4 0,-6 1,-16 3,-33 4,-49 -3,1 -6,1 -9,2 0,18 -3,37 -5,55z"/>
   <path class="fil3" d="M94 78c6,7 12,13 18,20 6,-2 11,-5 17,-7 0,-1 -6,-10 -6,-10 0,-6 22,-11 32,-11 -3,-4 -5,-9 -8,-13 -6,3 -19,7 -27,10 -7,2 -20,9 -26,11 0,0 0,0 0,0z"/>
   <path class="fil3" d="M182 68c2,3 3,6 5,9 8,0 17,1 23,2 5,2 6,2 11,3 3,2 5,5 7,5 0,-7 0,-14 -2,-20 -2,-4 -6,-12 -11,-12 -1,0 -3,0 -4,0 -12,0 -25,6 -29,13 0,0 0,0 0,0z"/>
   <path class="fil3" d="M136 83c0,11 6,16 8,23 1,2 2,2 2,0 2,-11 9,-22 21,-25 -1,-4 -9,-7 -14,-7 -5,0 -17,3 -17,9z"/>
   <path class="fil3" d="M179 102c2,3 3,5 5,8 3,6 7,13 10,19 10,-1 9,-2 6,-8 -2,-5 -4,-9 -6,-14 -4,-7 -9,-20 -19,-20 0,0 -2,2 -2,2 0,2 5,10 6,13 0,0 0,0 0,0z"/>
   <path class="fil3" d="M137 179c5,5 9,9 14,14 -1,-9 -8,-38 -12,-41 -1,9 -1,18 -2,27 0,0 0,0 0,0z"/>
   <path class="fil3" d="M123 172c0,-5 0,-10 0,-15 0,-9 0,-18 -2,-26 0,-4 -8,-17 -10,-19 2,9 5,19 6,30 1,5 2,11 2,15 1,4 1,14 4,15z"/>
   <path class="fil3" d="M169 53c2,4 5,9 7,13 6,-4 11,-8 17,-12 0,0 1,0 1,0 -1,-1 -4,-6 -5,-6 -9,0 -14,3 -20,5z"/>
   <path class="fil3" d="M128 174c2,1 3,3 5,4 0,-3 1,-7 1,-10 0,-6 0,-12 0,-18 0,-6 -4,-15 -8,-16 0,5 2,14 2,19 0,5 0,14 0,21 0,0 0,0 0,0z"/>
   <path class="fil3" d="M152 58c2,4 4,7 6,11 4,0 9,-1 13,-1 1,0 2,0 3,0 -3,-5 -7,-9 -10,-14 -4,1 -8,3 -12,4z"/>
   <path class="fil3" d="M147 110c8,-2 20,-15 20,-25 -10,1 -19,16 -20,25z"/>
   <path class="fil3" d="M178 81c1,0 2,0 3,0 0,-3 -2,-9 -5,-9 -1,0 -2,0 -3,0 -5,0 3,9 5,9z"/>
   <path class="fil4" d="M83 117c11,30 15,44 15,74 5,-1 36,15 41,19 4,3 4,0 2,-2 -7,-7 -27,-25 -30,-25 -5,-23 -10,-49 -27,-67 -1,-1 -2,-1 -1,1z"/>
   <path class="fil4" d="M245 82c0,1 4,7 5,9 1,0 13,19 15,21 5,6 -11,38 -11,48 0,2 2,2 3,0 3,-8 20,-42 20,-48 -1,-1 -30,-31 -31,-31 -2,-2 -1,-1 -1,1z"/>
   <path class="fil4" d="M121 53c9,-8 56,-23 72,-22 0,0 2,0 2,0 2,-1 -43,-7 -74,19 -1,1 -1,3 -1,3 1,0 1,0 1,0z"/>
  </g>
 </g>
</svg>
