<?xml version="1.0" encoding="utf-8"?>
<!-- Generator: Adobe Illustrator 22.0.0, SVG Export Plug-In . SVG Version: 6.00 Build 0)  -->
<svg version="1.1" id="Capa_1" xmlns="http://www.w3.org/2000/svg" xmlns:xlink="http://www.w3.org/1999/xlink" x="0px" y="0px"
	 viewBox="0 0 100 100" style="enable-background:new 0 0 100 100;" xml:space="preserve">
<style type="text/css">
	.st0{fill:#E1E7EB;}
	.st1{fill:#F8FAFB;}
	.st2{fill:#FB5252;}
	.st3{fill:#FA9F20;}
	.st4{fill:#69E781;}
	.st5{fill:#1273EB;}
	.st6{fill:#143B63;}
	.st7{fill:#90CBF8;}
	.st8{fill:#C5FFC5;}
	.st9{fill:#D33232;}
	.st10{fill:#F48F10;}
	.st11{fill:#2BC288;}
	.st12{fill:#0353A5;}
	.st13{fill:#0E2A47;}
	.st14{fill:#CDD7DE;}
	.st15{fill:#5EB0FA;}
	.st16{fill:#FAD97E;}
	.st17{fill:#FFC6AD;}
	.st18{fill:#FFA48D;}
	.st19{fill:#8BF48E;}
	.st20{fill:#FAD050;}
	.st21{fill:#B8C6D1;}
	.st22{fill:#FFB029;}
	.st23{fill:#E97D16;}
	.st24{fill:#FFB229;}
	.st25{fill:#FFECB4;}
</style>
<g id="XMLID_4512_">
	<g id="XMLID_4520_">
		<g id="XMLID_4526_">
			<g id="XMLID_4714_">
				<g>
					<g>
						<path class="st0" d="M98.2,21.2c-2.9,0-5.7,0-8.6,0c-12,0-6.1,0-18,0c-12,0-24.1,0-36.1,0c-11,0-22.5,0.9-33.5-0.4
							c-0.1,1.9-0.5,3.7-0.6,5.6c-0.3,3.7,0.2,7.4,0.4,11c0.2,3.5-0.2,7.2-0.2,10.9c10.8,0.8,85.9-0.1,96.5-0.1
							c-0.1-4,0.8-8.4,0.9-11.8c0.1-3.6,0.1-7.1-0.2-10.7C98.6,24.2,98.3,22.7,98.2,21.2z"/>
					</g>
				</g>
			</g>
			<g id="XMLID_4713_">
				<g>
					<g>
						<path class="st1" d="M99,19.7c-0.6-0.7-95.3-0.4-97.7,0c-1,0.1-1.3,29.3-1,35c0,0.1,0.7,0.2,1.9,0.3c0,0,0-0.1,0-0.1
							c-0.1,0-0.1,0-0.1-0.1c-0.3-5.2,0-31.9,1-32.1c2.3-0.3,93-0.6,93.6,0c0.6,0.7,1.4,24.1,0.7,33.4c0,0.1-0.2,0.1-0.6,0.2
							c0,0,0,0.1,0,0.1c1.8-0.1,2.8-0.2,2.8-0.4C100.4,46.1,99.6,20.5,99,19.7z"/>
					</g>
				</g>
			</g>
			<g id="XMLID_4712_">
				<g>
					<g>
						<path class="st1" d="M1.3,37.3c2.4-0.6,97-1.3,97.7,0.1c0.6,1.3,1.6,52,0,52s-97.5,2-98.6,0C-0.6,87.3,0.3,37.5,1.3,37.3z"/>
					</g>
				</g>
			</g>
			<g id="XMLID_4535_">
				<g id="XMLID_4711_">
					<g>
						<g>
							<path class="st2" d="M20.3,44.5c-2.3-3.7-7.8-5.8-11.7-2.8c-2.2,1.7-3.2,4.9-2.4,7.6c1.8,5.8,11.6,7.1,14.4,1.5
								C21.7,48.6,21.4,46.4,20.3,44.5z"/>
						</g>
					</g>
				</g>
				<g id="XMLID_4710_">
					<g>
						<g>
							<path class="st3" d="M38.8,42.9c-0.7-0.8-1.5-1.5-2.5-2c-3.7-1.8-9-0.1-10.7,3.7c-3.6,8.2,8.1,13.7,13.3,7.3
								C41,49.1,40.8,45.4,38.8,42.9z"/>
						</g>
					</g>
				</g>
				<g id="XMLID_4709_">
					<g>
						<g>
							<path class="st4" d="M55.5,41.6c-1-0.8-2.2-1.3-3.6-1.5c-5.2-0.6-9.9,5.2-7.8,10.1c2,4.8,8.6,6.1,12.2,2.3
								C59.4,49.3,58.7,44.2,55.5,41.6z"/>
						</g>
					</g>
				</g>
				<g id="XMLID_4708_">
					<g>
						<g>
							<path class="st5" d="M76.1,46.8c-0.2-2.6-2-5.1-4.4-6.1c-6.7-2.9-13.2,5.4-8.8,11.2c4,5.5,13,2.4,13.2-4.4
								C76.1,47.3,76.1,47,76.1,46.8z"/>
						</g>
					</g>
				</g>
				<g id="XMLID_4707_">
					<g>
						<g>
							<path class="st6" d="M90.6,41.8c-1.6-1-3.6-1.4-5.4-1.2c-2,0.3-4,1.4-5,3.2c-2.9,5.5,2.5,11.6,7.9,10.4
								c5.8-1.3,7.3-7.4,4.6-10.6C92.1,42.8,91.4,42.2,90.6,41.8z"/>
						</g>
					</g>
				</g>
				<g id="XMLID_4706_">
					<g>
						<g>
							<path class="st0" d="M79.4,74.5c0.7,0.8,1.5,1.5,2.5,2c3.7,1.8,9,0.1,10.7-3.7c3.6-8.2-8.1-13.7-13.3-7.3
								C77.1,68.3,77.4,72,79.4,74.5z"/>
						</g>
					</g>
				</g>
				<g id="XMLID_4705_">
					<g>
						<g>
							<path class="st7" d="M62.6,74.8c1,0.8,2.2,1.3,3.6,1.5c5.2,0.6,9.9-5.2,7.8-10.1c-2-4.8-8.6-6.1-12.2-2.3
								C58.8,67.1,59.5,72.3,62.6,74.8z"/>
						</g>
					</g>
				</g>
				<g id="XMLID_4704_">
					<g>
						<g>
							<path class="st8" d="M42,69.9c0.2,2.6,2,5.1,4.4,6.1c6.7,2.9,13.2-5.4,8.8-11.2c-4-5.5-13-2.4-13.2,4.4
								C42,69.4,42,69.6,42,69.9z"/>
						</g>
					</g>
				</g>
				<g id="XMLID_4703_">
					<g>
						<g>
							<path class="st9" d="M14.2,54.8c-0.3,0-0.5,0-0.8,0c-3-0.2-6.4-2-7.4-5.3c0-0.2,0-0.3,0.2-0.4c0.2,0,0.3,0,0.4,0.2
								c0.9,3,4.1,4.6,6.9,4.9c2.4,0.2,5.5-0.6,6.9-3.4c0.5-1,0.7-1.9,0.7-2.9c0-0.2,0.1-0.3,0.3-0.3c0.2,0,0.3,0.1,0.3,0.3
								c0,1.1-0.2,2.2-0.7,3.2C19.7,53.4,17.2,54.8,14.2,54.8z"/>
						</g>
					</g>
				</g>
				<g id="XMLID_4566_">
					<g>
						<g>
							<path class="st10" d="M32.9,55c-0.5,0-1,0-1.5-0.1c-3-0.5-5.6-2.5-6.4-5.1c-0.1-0.2,0-0.3,0.2-0.4c0.2-0.1,0.3,0,0.4,0.2
								c0.8,2.4,3.1,4.2,6,4.7c2.8,0.5,5.4-0.4,7.1-2.6c0.7-0.9,1.1-1.8,1.3-2.9c0-0.2,0.2-0.3,0.3-0.2c0.2,0,0.3,0.2,0.2,0.3
								c-0.2,1.2-0.7,2.2-1.5,3.1C37.6,53.9,35.3,55,32.9,55z"/>
						</g>
					</g>
				</g>
				<g id="XMLID_4560_">
					<g>
						<g>
							<path class="st11" d="M51.1,55c-0.5,0-1,0-1.4-0.1c-2.6-0.5-4.8-2.2-5.8-4.5c-0.1-0.1,0-0.3,0.2-0.4c0.1-0.1,0.3,0,0.4,0.2
								c0.9,2.2,2.9,3.7,5.4,4.2c2.4,0.4,4.7-0.3,6.3-2c0.9-1,1.6-2.2,1.8-3.5c0-0.2,0.2-0.3,0.3-0.2c0.2,0,0.3,0.2,0.2,0.3
								c-0.3,1.4-0.9,2.8-1.9,3.8C55.1,54.2,53.1,55,51.1,55z"/>
						</g>
					</g>
				</g>
				<g id="XMLID_4559_">
					<g>
						<g>
							<path class="st12" d="M68.5,55c-2.3,0-4.4-1-5.8-2.9c-0.5-0.7-0.9-1.5-1.2-2.4c0-0.2,0-0.3,0.2-0.4c0.2,0,0.3,0,0.4,0.2
								c0.2,0.8,0.6,1.5,1.1,2.2c1.7,2.2,4.5,3.2,7.3,2.4c2.9-0.8,5.1-3.1,5.4-6c0-0.2,0.2-0.3,0.3-0.3c0.2,0,0.3,0.2,0.3,0.3
								c-0.4,3.1-2.7,5.7-5.8,6.5C69.9,54.9,69.2,55,68.5,55z"/>
						</g>
					</g>
				</g>
				<g id="XMLID_4544_">
					<g>
						<g>
							<path class="st13" d="M86.7,54.6c-1.4,0-2.9-0.5-4.2-1.4c-1.8-1.3-3.1-3.3-3.4-5.3c0-0.2,0.1-0.3,0.3-0.3
								c0.2,0,0.3,0.1,0.3,0.3c0.3,1.9,1.4,3.8,3.1,4.9c1.6,1.1,3.4,1.5,5.2,1.1c2.5-0.6,4.4-2.1,5.2-4.3c0.1-0.2,0.2-0.2,0.4-0.2
								c0.2,0.1,0.2,0.2,0.2,0.4c-0.9,2.4-3,4.1-5.7,4.7C87.6,54.5,87.2,54.6,86.7,54.6z"/>
						</g>
					</g>
				</g>
				<g id="XMLID_4542_">
					<g>
						<g>
							<path class="st14" d="M85.1,76.9c-1.2,0-2.4-0.3-3.4-0.8c-1-0.5-1.9-1.2-2.6-2.1c-0.9-1.1-1.5-2.5-1.6-4
								c0-0.2,0.1-0.3,0.3-0.3c0.2,0,0.3,0.1,0.3,0.3c0.1,1.3,0.7,2.6,1.5,3.7c0.7,0.8,1.5,1.5,2.4,1.9c1.8,0.9,4,0.9,6,0.2
								c1.9-0.7,3.5-2.1,4.2-3.8c0.4-1,0.6-1.9,0.7-2.8c0-0.2,0.1-0.3,0.3-0.3c0,0,0,0,0,0c0.2,0,0.3,0.1,0.3,0.3c0,1-0.3,2-0.7,3
								c-0.8,1.8-2.5,3.3-4.6,4.1C87.2,76.7,86.2,76.9,85.1,76.9z"/>
						</g>
					</g>
				</g>
				<g id="XMLID_4541_">
					<g>
						<g>
							<path class="st15" d="M66.9,76.6c-0.3,0-0.5,0-0.8,0c-1.4-0.2-2.7-0.7-3.7-1.6c-1.4-1.1-2.3-2.7-2.7-4.5
								c0-0.2,0.1-0.3,0.2-0.3c0.2,0,0.3,0.1,0.3,0.2c0.3,1.7,1.2,3.1,2.5,4.1c1,0.8,2.1,1.3,3.4,1.4c1.8,0.2,3.6-0.4,5.1-1.6
								c1.6-1.3,2.7-3.2,2.9-5.1c0-0.2,0.2-0.3,0.3-0.3c0.2,0,0.3,0.2,0.3,0.3c-0.2,2.1-1.3,4.1-3.1,5.5
								C70.3,76,68.6,76.6,66.9,76.6z"/>
						</g>
					</g>
				</g>
				<g id="XMLID_4540_">
					<g>
						<g>
							<path class="st16" d="M27.5,74.9c1.6,1,3.6,1.4,5.4,1.2c2-0.3,4-1.4,5-3.2c2.9-5.5-2.5-11.6-7.9-10.4
								c-5.8,1.3-7.3,7.4-4.6,10.6C26,73.9,26.7,74.4,27.5,74.9z"/>
						</g>
					</g>
				</g>
				<g id="XMLID_4539_">
					<g>
						<g>
							<path class="st17" d="M9.7,74.9c1.6,1,3.6,1.4,5.4,1.2c2-0.3,4-1.4,5-3.2c2.9-5.5-2.5-11.6-7.9-10.4
								c-5.8,1.3-7.3,7.4-4.6,10.6C8.2,73.9,8.9,74.4,9.7,74.9z"/>
						</g>
					</g>
				</g>
				<g id="XMLID_4538_">
					<g>
						<g>
							<path class="st18" d="M14.1,76.4c-1.6,0-3.2-0.4-4.6-1.3c-0.8-0.5-1.6-1.1-2.2-1.8c-0.7-0.8-1.1-1.9-1.3-3
								c0-0.2,0.1-0.3,0.3-0.3c0.2,0,0.3,0.1,0.3,0.3c0.1,1,0.6,1.9,1.2,2.7c0.6,0.7,1.2,1.2,2,1.7c1.6,1,3.5,1.4,5.3,1.1
								c2.1-0.3,3.9-1.4,4.8-3c0.6-1.1,0.8-2.2,0.8-3.4c0-0.2,0.1-0.3,0.3-0.3c0.2,0,0.3,0.1,0.3,0.3c0.1,1.3-0.2,2.5-0.8,3.7
								c-0.9,1.8-2.9,3-5.2,3.3C14.8,76.4,14.5,76.4,14.1,76.4z"/>
						</g>
					</g>
				</g>
				<g id="XMLID_4537_">
					<g>
						<g>
							<path class="st19" d="M49.2,76.9c-0.9,0-1.9-0.2-2.9-0.6c-1.9-0.8-3.4-2.5-4.1-4.5c-0.1-0.2,0-0.3,0.2-0.4
								c0.2-0.1,0.3,0,0.4,0.2c0.7,1.9,2.1,3.4,3.8,4.1c4,1.7,7.8-0.7,9.3-4c0.1-0.2,0.2-0.2,0.4-0.2c0.1,0.1,0.2,0.2,0.2,0.4
								C55.1,74.7,52.4,76.9,49.2,76.9z"/>
						</g>
					</g>
				</g>
				<g id="XMLID_4536_">
					<g>
						<g>
							<path class="st20" d="M31.9,76.4c-1.6,0-3.2-0.4-4.6-1.3c-0.8-0.5-1.6-1.1-2.2-1.8c-0.1-0.1-0.1-0.3,0-0.4
								c0.1-0.1,0.3-0.1,0.4,0c0.6,0.7,1.2,1.2,2,1.7c1.6,1,3.5,1.4,5.3,1.1c2.1-0.3,3.9-1.4,4.8-3c0.2-0.3,0.3-0.7,0.5-1.1
								c0.1-0.2,0.2-0.2,0.4-0.2c0.2,0.1,0.2,0.2,0.2,0.4c-0.1,0.4-0.3,0.8-0.5,1.1c-0.9,1.8-2.9,3-5.2,3.3
								C32.6,76.4,32.3,76.4,31.9,76.4z"/>
						</g>
					</g>
				</g>
			</g>
			<g id="XMLID_4534_">
				<g>
					<g>
						<path class="st0" d="M6.2,84.2c1.4-2.2,47.2-2.8,56.2-2.6c9,0.2,31.6-1.9,31.6,1.3c0.1,4-59.4,2.7-65.9,3.1
							C21.5,86.6,4.9,86.1,6.2,84.2z"/>
					</g>
				</g>
			</g>
			<g id="XMLID_4533_">
				<g>
					<g>
						<path class="st1" d="M21.8,22.2c-0.2-1.4-2.7-1.1-2.5,0.3c0.8,6.3,0.2,12.3,0.4,18.6c0,1,1.4,1.2,1.7,0.2
							C23.3,35.4,22.6,28.3,21.8,22.2z"/>
					</g>
				</g>
			</g>
			<g id="XMLID_4532_">
				<g>
					<g>
						<path class="st1" d="M41.4,22.1c0.1-1.7-2.5-1.7-2.6,0c-0.3,6-1.5,14.1,1,19.7c0.2,0.4,0.7,0.2,0.8-0.1
							c0.9-2.9,0.5-6.1,0.5-9.1C41.1,29.1,41.2,25.6,41.4,22.1z"/>
					</g>
				</g>
			</g>
			<g id="XMLID_4531_">
				<g>
					<g>
						<path class="st1" d="M59.5,22c-0.1-1.6-2.6-1.6-2.5,0c0.4,6.2-0.4,12.5,0.4,18.6c0.1,0.8,1.2,1.1,1.5,0.2
							C60.2,34.8,59.9,28.1,59.5,22z"/>
					</g>
				</g>
			</g>
			<g id="XMLID_4530_">
				<g>
					<g>
						<path class="st1" d="M78.2,22c-0.4-1.8-3.1-1-2.7,0.7c1.3,5.7-0.2,11.5,0.6,17.2c0.1,1,1.6,0.9,1.9,0
							C79.4,34.4,79.4,27.6,78.2,22z"/>
					</g>
				</g>
			</g>
			<g id="XMLID_4529_">
				<g>
					<g>
						<path class="st0" d="M77.3,89.1c-0.1,0-0.2-0.1-0.3-0.2c-0.1-0.2,0-0.3,0.2-0.4c1.2-0.4,16.1-0.5,19.7-0.5
							c1.5-7.9,1.3-15.4,1.1-23.3c-0.2-5.7-0.4-11.7,0.2-17.8c0-0.2,0.2-0.3,0.3-0.3c0.2,0,0.3,0.2,0.3,0.3
							c-0.6,6.1-0.4,12-0.2,17.7c0.3,8,0.5,15.6-1.1,23.6c0,0.1-0.1,0.2-0.3,0.2c-6.9,0-18.8,0.1-19.7,0.4
							C77.3,89.1,77.3,89.1,77.3,89.1z"/>
					</g>
				</g>
			</g>
			<g id="XMLID_4528_">
				<g>
					<g>
						<path class="st0" d="M43.7,88.9c-0.2,0-0.3-0.1-0.3-0.3c0-0.2,0.1-0.3,0.3-0.3c2.5,0,4.9,0,7.4-0.1c5-0.1,10.2-0.2,15.3,0.1
							c0.2,0,0.3,0.1,0.3,0.3c0,0.2-0.1,0.3-0.3,0.3c-5.1-0.2-10.2-0.1-15.2-0.1C48.6,88.9,46.1,88.9,43.7,88.9L43.7,88.9z"/>
					</g>
				</g>
			</g>
			<g id="XMLID_4527_">
				<g>
					<g>
						<path class="st0" d="M17.2,89c-4.9,0-9.5-0.2-14.8-1.3c-0.1,0-0.2-0.1-0.2-0.2C0.8,78.6,1,69.1,1.1,60c0-3.3,0.1-6.8,0.1-10.1
							c0-0.2,0.1-0.3,0.3-0.3c0,0,0,0,0,0c0.2,0,0.3,0.1,0.3,0.3c0,3.4,0,6.8-0.1,10.2C1.5,69,1.4,78.4,2.7,87.2
							c6.7,1.3,12.3,1.2,18.8,1.2c2.4,0,4.9-0.1,7.7,0c0.2,0,0.3,0.1,0.3,0.3c0,0.2-0.1,0.3-0.3,0.3c-2.8,0-5.3,0-7.7,0
							C20.1,89,18.6,89,17.2,89z"/>
					</g>
				</g>
			</g>
		</g>
		<g id="XMLID_4525_">
			<g>
				<g>
					<path class="st21" d="M19.3,23.2c-0.1,0-0.2-0.1-0.3-0.2c-0.9-0.5-10.7-0.1-13.9,0.1c-0.9,0-1.6,0.1-2,0.1
						c-0.2,0-0.3-0.1-0.3-0.3c0-0.2,0.1-0.3,0.3-0.3c0.4,0,1.1,0,2-0.1c13.4-0.6,14.4-0.3,14.5,0.3C19.6,23,19.5,23.1,19.3,23.2
						C19.3,23.2,19.3,23.2,19.3,23.2z"/>
				</g>
			</g>
		</g>
		<g id="XMLID_4524_">
			<g>
				<g>
					<path class="st21" d="M22,23.2C22,23.2,22,23.2,22,23.2c-0.2,0-0.3-0.2-0.3-0.3c0.1-0.6,1.2-1,14.5-0.3c0.9,0,1.6,0.1,2,0.1
						c0.2,0,0.3,0.1,0.3,0.3c0,0.2-0.1,0.3-0.3,0.3c-0.4,0-1.1,0-2-0.1c-3.2-0.2-13-0.6-13.9-0.1C22.2,23.1,22.1,23.2,22,23.2z"/>
				</g>
			</g>
		</g>
		<g id="XMLID_4523_">
			<g>
				<g>
					<path class="st21" d="M46.9,23c-2.7,0-5.1-0.1-5.6-0.3c-0.2-0.1-0.2-0.2-0.2-0.4c0.1-0.2,0.2-0.2,0.4-0.2
						c1.3,0.4,14.4,0.1,15.5,0c0.2,0,0.3,0.1,0.3,0.3c0,0.2-0.1,0.3-0.3,0.3C56.4,22.8,51.2,23,46.9,23z"/>
				</g>
			</g>
		</g>
		<g id="XMLID_4522_">
			<g>
				<g>
					<path class="st21" d="M75.5,23.1c0,0-0.1,0-0.1,0c-0.7-0.2-12.5-0.2-15.8-0.2c0,0,0,0,0,0c-0.2,0-0.3-0.1-0.3-0.3
						c0-0.2,0.1-0.3,0.3-0.3c0.2,0,15.5,0,16.1,0.3c0.1,0.1,0.2,0.3,0.1,0.4C75.7,23,75.6,23.1,75.5,23.1z"/>
				</g>
			</g>
		</g>
		<g id="XMLID_4521_">
			<g>
				<g>
					<path class="st21" d="M94.8,23.2c-0.3,0-1.6,0-3.3-0.1C87,23,79.6,22.8,78.7,22.9c-0.2,0-0.3-0.1-0.3-0.3
						c0-0.2,0.1-0.3,0.3-0.3c1-0.1,8.4,0.1,12.9,0.2c1.7,0,3.1,0.1,3.3,0.1c0.1,0,0.3,0.1,0.3,0.3C95.1,23,95,23.2,94.8,23.2
						C94.8,23.2,94.8,23.2,94.8,23.2z"/>
				</g>
			</g>
		</g>
	</g>
	<g id="XMLID_4513_">
		<g id="XMLID_4519_">
			<g>
				<g>
					<path class="st22" d="M80.8,12c1.5-0.1,3-0.2,4.5-0.2l1.7-0.2l-1.1-1c0,0-2.1-0.1-5.9-0.1C80.1,11.1,80.3,11.7,80.8,12z"/>
				</g>
			</g>
		</g>
		<g id="XMLID_4518_">
			<g>
				<g>
					<path class="st5" d="M2.5,12.9c43.6,1.2,62.4,0,78.3-0.8c-0.4-0.4-0.7-0.9-0.8-1.5C68.2,10.4,39.6,10.3,2.5,12
						C1.9,12,1.9,12.9,2.5,12.9z"/>
				</g>
			</g>
		</g>
		<g id="XMLID_4517_">
			<g>
				<g>
					<path class="st10" d="M84.3,11.4c1.7,1.1,3.9,1.2,6,1.2c0,0,0,0,0,0c1.6,0,3.2-0.2,4.6-0.8c0.5-0.2,1-0.4,1.5-0.6
						c0.1-0.3-1.5-0.9-1.6-1c-1.4-0.4-3-0.4-4.4-0.4c-2,0-4.3,0-6,0.9C84.2,10.9,84,11.2,84.3,11.4z"/>
				</g>
			</g>
		</g>
		<g id="XMLID_4516_">
			<g>
				<g>
					<path class="st23" d="M95,11.3c0,0-0.1,0-0.1,0c-1.6-0.6-8.1-0.6-9.4,0c-0.1,0.1-0.3,0-0.4-0.1c-0.1-0.1,0-0.3,0.1-0.4
						c1.4-0.7,8.1-0.7,9.9,0c0.2,0.1,0.2,0.2,0.2,0.4C95.3,11.2,95.1,11.3,95,11.3z"/>
				</g>
			</g>
		</g>
		<g id="XMLID_4515_">
			<g>
				<g>
					<path class="st24" d="M89.3,12.1c-1.3,0-2.5,0-2.8-0.2c-0.2-0.1-0.2-0.2-0.2-0.4c0.1-0.2,0.2-0.2,0.4-0.2
						c0.4,0.2,4.7,0.2,6.3,0c0.2,0,0.3,0.1,0.3,0.3c0,0.2-0.1,0.3-0.3,0.3C92.3,12.1,90.7,12.1,89.3,12.1z"/>
				</g>
			</g>
		</g>
		<g id="XMLID_4514_">
			<g>
				<g>
					<path class="st25" d="M81.3,11.7c-0.2,0-0.3-0.1-0.3-0.3c0-0.2,0.1-0.3,0.3-0.3c0,0,1,0,2.2-0.1c0.2,0,0.3,0.1,0.3,0.3
						c0,0.2-0.1,0.3-0.3,0.3C82.3,11.7,81.3,11.7,81.3,11.7z"/>
				</g>
			</g>
		</g>
	</g>
</g>
</svg>
