<?xml version="1.0" encoding="utf-8"?>
<!-- Generator: Adobe Illustrator 22.0.0, SVG Export Plug-In . SVG Version: 6.00 Build 0)  -->
<svg version="1.1" id="Capa_1" xmlns="http://www.w3.org/2000/svg" xmlns:xlink="http://www.w3.org/1999/xlink" x="0px" y="0px"
	 viewBox="0 0 100 100" style="enable-background:new 0 0 100 100;" xml:space="preserve">
<style type="text/css">
	.st0{fill:#C5E9FF;}
	.st1{fill:#5EB0FA;}
	.st2{fill:#2C8AF2;}
	.st3{fill:#1273EB;}
	.st4{fill:#90CBF8;}
	.st5{fill:#F8FAFB;}
</style>
<g id="XMLID_4371_">
	<g id="XMLID_4422_">
		<g>
			<g>
				<path class="st0" d="M21.1,91.4c-21.3-3.4,60.4-4.4,69.4-1.8c9,2.6,7.8,3.4-5.9,3.2c-13.7-0.1-27.4,0.6-33.9,5.5
					C48.3,95.3,30.6,92.9,21.1,91.4z"/>
			</g>
		</g>
	</g>
	<g id="XMLID_4372_">
		<g id="XMLID_4383_">
			<g id="XMLID_4402_">
				<g id="XMLID_4416_">
					<g id="XMLID_4421_">
						<g>
							<g>
								<path class="st1" d="M46.1,54.7c-1.6,2.7-25.9,32.4-28.7,34.2c-2.8,1.8,1.5,4,4.2,2.3c2.7-1.7,26.5-32.4,26.9-35.5
									C48.6,54.5,46.1,54.7,46.1,54.7z"/>
							</g>
						</g>
					</g>
					<g id="XMLID_4420_">
						<g>
							<g>
								<path class="st2" d="M21.5,85c-0.3-0.2-0.7-0.1-0.9,0.1c-1.8,2-3,3.3-3.6,3.6c-2.8,1.8,2.4,4.4,5.2,2.7
									c0.5-0.3,1.9-1.8,3.8-4c0.2-0.2,0.1-0.5-0.3-0.7C24.4,86.3,22.7,85.6,21.5,85z"/>
							</g>
						</g>
					</g>
					<g id="XMLID_4419_">
						<g>
							<g>
								<path class="st3" d="M19.8,92c-0.8,0-1.5-0.2-2.1-0.5c-1-0.5-1.5-1.2-1.5-1.9c0-0.3,0.2-0.5,0.5-0.5c0.3,0,0.5,0.2,0.5,0.5
									c0,0.2,0.3,0.6,0.9,1c0.9,0.5,2.5,0.6,3.7-0.4c0.2-0.2,0.6-0.1,0.7,0.1c0.2,0.2,0.1,0.6-0.1,0.7C21.7,91.7,20.7,92,19.8,92z
									"/>
							</g>
						</g>
					</g>
					<g id="XMLID_4418_">
						<g>
							<g>
								<path class="st2" d="M37.5,66.2c-0.1,0-0.2,0-0.3-0.1c-0.2-0.2-0.3-0.5-0.1-0.7c1.9-2.3,5.2-0.2,5.3-0.1
									c0.2,0.2,0.3,0.5,0.2,0.7c-0.2,0.2-0.5,0.3-0.7,0.2c0,0-2.7-1.7-3.9-0.1C37.8,66.2,37.7,66.2,37.5,66.2z"/>
							</g>
						</g>
					</g>
					<g id="XMLID_4417_">
						<g>
							<g>
								<path class="st2" d="M31.5,80.2c-0.1,0-0.2,0-0.3-0.1c0,0-3.3-2-4.5-0.6c-0.2,0.2-0.5,0.2-0.7,0.1c-0.2-0.2-0.2-0.5-0.1-0.7
									c1.8-2.1,5.7,0.2,5.9,0.3c0.2,0.1,0.3,0.5,0.2,0.7C31.9,80.1,31.7,80.2,31.5,80.2z"/>
							</g>
						</g>
					</g>
				</g>
				<g id="XMLID_4410_">
					<g id="XMLID_4415_">
						<g>
							<g>
								<path class="st1" d="M62.5,55.4c1.4,2.9,21.5,34.9,23.7,36.8c2.2,1.9-1,4.4-3.2,2.6c-2.2-1.8-21.9-34.9-22.4-38.2
									C60.6,55.2,62.5,55.4,62.5,55.4z"/>
							</g>
						</g>
					</g>
					<g id="XMLID_4414_">
						<g>
							<g>
								<path class="st2" d="M82.9,88c0.2-0.2,0.6-0.1,0.7,0.1c1.4,2.1,2.5,3.5,2.9,3.9c2.2,1.9-1.8,4.9-4,3.1
									c-0.4-0.4-1.6-2-3.1-4.3c-0.2-0.3-0.1-0.6,0.2-0.7C80.7,89.4,82,88.6,82.9,88z"/>
							</g>
						</g>
					</g>
					<g id="XMLID_4413_">
						<g>
							<g>
								<path class="st3" d="M84.1,95.6c-1,0-1.8-0.8-1.9-0.9c-0.2-0.2-0.2-0.5,0-0.7c0.2-0.2,0.5-0.2,0.7,0
									c0.2,0.2,0.7,0.5,1.2,0.6c1.3,0,1.9-0.5,2-1.7c0-0.3,0.3-0.5,0.5-0.5c0.3,0,0.5,0.3,0.5,0.5C87.1,94.1,86.5,95.5,84.1,95.6
									C84.2,95.6,84.1,95.6,84.1,95.6z"/>
							</g>
						</g>
					</g>
					<g id="XMLID_4412_">
						<g>
							<g>
								<path class="st2" d="M66.1,67.9c-0.1,0-0.3-0.1-0.4-0.2c-0.2-0.2-0.2-0.5,0-0.7c0.1-0.1,1.4-1.3,2.8-1.1
									c0.5,0.1,1.1,0.3,1.6,1.1c0.2,0.2,0.1,0.6-0.2,0.7c-0.2,0.2-0.6,0.1-0.7-0.2c-0.2-0.4-0.5-0.6-0.9-0.6
									c-0.9-0.1-1.9,0.9-1.9,0.9C66.3,67.8,66.2,67.9,66.1,67.9z"/>
							</g>
						</g>
					</g>
					<g id="XMLID_4411_">
						<g>
							<g>
								<path class="st2" d="M74.9,82.9c-0.1,0-0.3-0.1-0.4-0.2c-0.2-0.2-0.2-0.5,0-0.7c0.2-0.2,1.9-1.7,3.4-1.5
									c0.6,0.1,1.1,0.4,1.5,0.9c0.2,0.2,0.1,0.6-0.2,0.7c-0.2,0.2-0.6,0.1-0.7-0.2c-0.2-0.3-0.4-0.4-0.7-0.5
									c-0.9-0.1-2.2,0.8-2.6,1.2C75.1,82.8,75,82.9,74.9,82.9z"/>
							</g>
						</g>
					</g>
				</g>
				<g id="XMLID_4404_">
					<g id="XMLID_4409_">
						<g>
							<g>
								<path class="st1" d="M52.8,57.8c0.8,3.3-2.8,34.7-3.8,37.9c-1.1,3.3,2.1,6.3,3.9,1.8c1.8-4.5,3.6-36.4,3.3-38.8
									C55.7,56.4,52.8,57.8,52.8,57.8z"/>
							</g>
						</g>
					</g>
					<g id="XMLID_4408_">
						<g>
							<g>
								<path class="st2" d="M54.7,84.7C54.7,84.7,54.7,84.7,54.7,84.7c-0.2,0-0.4-0.1-0.5-0.3c-0.2-0.2-0.9-0.6-1.7-0.6
									c-0.6,0-1,0.2-1.4,0.7c-0.2,0.2-0.5,0.2-0.7,0.1c-0.2-0.2-0.2-0.5-0.1-0.7c0.9-1.1,2.3-1.3,3.7-0.7c0.5,0.2,1.2,0.6,1.2,1.1
									C55.2,84.5,55,84.7,54.7,84.7z"/>
							</g>
						</g>
					</g>
					<g id="XMLID_4407_">
						<g>
							<g>
								<path class="st2" d="M52.4,68.5c-0.1,0-0.1,0-0.2,0c-0.3-0.1-0.4-0.4-0.3-0.7c0.4-1.1,1.1-1.7,2-1.8c0.9,0,1.8,0.6,2.3,1.7
									c0.1,0.3,0,0.6-0.3,0.7c-0.3,0.1-0.6,0-0.7-0.3c-0.3-0.7-0.8-1.1-1.3-1.1c-0.4,0-0.8,0.4-1.1,1.1
									C52.8,68.3,52.6,68.5,52.4,68.5z"/>
							</g>
						</g>
					</g>
					<g id="XMLID_4406_">
						<g>
							<g>
								<path class="st2" d="M53.4,91.3c-1-0.6-2.4-0.6-3.5-0.2c-0.5,0.2-0.8,0.6-0.9,1.1c-0.3,2-0.7,3.8-0.9,4.3
									c-1.1,3.3,3.6,4.8,4.9,2.1c0.4-0.8,1-3.2,1.3-5.7c0.1-0.6-0.2-1.1-0.7-1.4C53.5,91.4,53.4,91.4,53.4,91.3z"/>
							</g>
						</g>
					</g>
					<g id="XMLID_4405_">
						<g>
							<g>
								<path class="st3" d="M50.7,99.9c-0.1,0-0.3,0-0.4,0c-0.8-0.1-1.5-0.6-2-1.2c-0.2-0.2-0.1-0.6,0.2-0.7
									c0.2-0.2,0.6-0.1,0.7,0.2c0.3,0.4,0.7,0.7,1.2,0.8c0.5,0.1,1-0.1,1.3-0.4c0.2-0.2,0.5-0.2,0.7,0c0.2,0.2,0.2,0.5,0,0.7
									C52,99.7,51.4,99.9,50.7,99.9z"/>
							</g>
						</g>
					</g>
				</g>
				<g id="XMLID_4403_">
					<g>
						<g>
							<path class="st3" d="M50,53.4c-2.6,0.3-4.6,0.2-3.3,2.4c1.3,2.2,3.9-1.8,4.7,0c0.8,1.8,3.2,5.8,4.7,2.4
								c1.4-3.4,3.7-3,4.9-0.8c1.2,2.2,3.8-2.4-0.5-4.3C56,51.2,50,53.4,50,53.4z"/>
						</g>
					</g>
				</g>
			</g>
			<g id="XMLID_4399_">
				<g id="XMLID_4401_">
					<g>
						<g>
							<path class="st2" d="M50.6,43.8c-1.8,0.9-2.3,2.6-2.3,7.4c0,2.1,0.3,2.6,2.5,2.6c2.2,0,5.4,0,7.2,0c1.7,0,3.4-5,3.4-5
								l-8.7-5.6L50.6,43.8z"/>
						</g>
					</g>
				</g>
				<g id="XMLID_4400_">
					<g>
						<g>
							<path class="st1" d="M54.2,48.6c-0.8,0-1.7,0.7-1.6,1.6c0,0.9,0.7,1.6,1.6,1.6c0.8,0,1.7-0.7,1.6-1.6
								C55.8,49.3,55.1,48.6,54.2,48.6z"/>
						</g>
					</g>
				</g>
			</g>
			<g id="XMLID_4398_">
				<g>
					<g>
						<polygon class="st3" points="65.1,26.7 61.8,30.8 64.1,32.6 67.5,28.3 						"/>
					</g>
				</g>
			</g>
			<g id="XMLID_4397_">
				<g>
					<g>
						<path class="st3" d="M81.6,48.2c1.4-0.8,5.8,2.8,7.2,3.6c1.5,0.8,3.7-3.2,5.2-3.7c1.5-0.5,2.6,0.5,2.1,1.3
							c-0.4,0.8-5.2,8.8-8.2,10.2c-3.1,1.3-6.4,1.4-13.1-3.8C76.9,52.7,81.6,48.2,81.6,48.2z"/>
					</g>
				</g>
			</g>
			<g id="XMLID_4396_">
				<g>
					<g>
						<path class="st2" d="M74.2,39.9c2.1-0.8,2.3-1.3,4,0c1.7,1.3,4.9,4.4,5.4,5.4c0.5,1.1-0.4,5.9-2.1,8c-1.7,2.1-6.1,4.9-9.4,3.7
							c-3.3-1.2-5.3-3.6-5.9-5c-0.6-1.4,2.6-5.6,2.6-5.6L74.2,39.9z"/>
					</g>
				</g>
			</g>
			<g id="XMLID_4395_">
				<g>
					<g>
						<path class="st3" d="M64.7,48.1c-1.3,1.3-3.2,2.5-6.5,0.6c-3.3-1.9-8.6-4-9.9-6c-1.3-2,0.8-4.3,1.6-4.8
							C50.5,37.4,60.7,42.3,64.7,48.1z"/>
					</g>
				</g>
			</g>
			<g id="XMLID_4394_">
				<g>
					<g>
						<path class="st4" d="M27.4,5.4c5,3.8,31.1,23,33.8,25c2.7,1.9,15.4,10.2,16.4,11.6c2.5,3.4-2.6,10.2-6.1,10.5
							c-3.5,0.4-8.7-3.2-14.7-7.5c-6-4.3-34.6-22.9-37.8-26.2c-3.2-3.3,3-12.9,3-12.9L27.4,5.4z"/>
					</g>
				</g>
			</g>
			<g id="XMLID_4393_">
				<g>
					<g>
						<path class="st2" d="M30.3,27.9c-2-0.6-3.3-1.1-5-2.1c-8.1-4.7-12.1-8.2-14.6-10c-2.2-1.5-1.7-5-0.9-7.1
							C11.6,3.9,16.1,0,21.3,0c3.9,0,13.6,7.8,17.2,10.8c2.2,1.8,3.7,4.2,2.8,7.1c-1.1,3.7-3.5,7-6.6,9.1
							C33.3,28,31.6,28.3,30.3,27.9z"/>
					</g>
				</g>
			</g>
			<g id="XMLID_4392_">
				<g>
					<g>
						<path class="st3" d="M31.5,28.6c-0.5,0-0.9-0.1-1.4-0.2c-1.9-0.6-3.3-1.1-5.2-2.2c-3.3-1.9-6.3-3.9-9.1-5.9
							c-0.2-0.2-0.3-0.5-0.1-0.7c0.2-0.2,0.5-0.3,0.7-0.1c2.8,2,5.8,3.9,9.1,5.9c1.8,1,3.1,1.5,4.9,2.1c1.2,0.4,2.7,0.1,4-0.8
							c2.3-1.5,4.2-3.8,5.4-6.3c0.1-0.3,0.4-0.4,0.7-0.2c0.3,0.1,0.4,0.4,0.2,0.7c-1.3,2.7-3.4,5-5.8,6.7
							C33.9,28.2,32.7,28.6,31.5,28.6z"/>
					</g>
				</g>
			</g>
			<g id="XMLID_4391_">
				<g>
					<g>
						<path class="st0" d="M10.5,13.7c2.2,0.4,6.4-4,8.4-6.4c1.7-2,4.3-6,2.5-6.3c-2.5-0.4-5.6,0.6-8.2,4.1
							C10.5,8.5,9.9,10.8,10.5,13.7z"/>
					</g>
				</g>
			</g>
			<g id="XMLID_4390_">
				<g>
					<g>
						<path class="st4" d="M55.3,21.6c-1.3-1.7,1.4-4,3.2-3.4c1.8,0.6,16,10.1,17.4,11.9c1.4,1.7-1,5.2-3.6,3.5
							C69.8,31.8,56.9,23.7,55.3,21.6z"/>
					</g>
				</g>
			</g>
			<g id="XMLID_4389_">
				<g>
					<g>
						<path class="st2" d="M63.5,21.1c-2.4-1.6-4.4-2.7-5-2.9c-1.8-0.6-4.5,1.7-3.2,3.4c0.5,0.7,2.3,2.1,4.6,3.7
							C61.8,24.4,62.9,22.9,63.5,21.1z"/>
					</g>
				</g>
			</g>
			<g id="XMLID_4388_">
				<g>
					<g>
						<path class="st2" d="M75.9,30c-0.3-0.4-1.3-1.2-2.6-2.2c-0.9,1.6-1.5,3.6-3.5,3.7c-0.1,0-0.3,0.1-0.4,0.1
							c1.3,0.9,2.4,1.5,2.9,1.9C74.9,35.3,77.3,31.7,75.9,30z"/>
					</g>
				</g>
			</g>
			<g id="XMLID_4387_">
				<g>
					<g>
						<path class="st3" d="M69.4,26c0.1-0.3,0.2-0.5,0.2-0.8c-0.8-0.6-1.6-1.1-2.4-1.7c-0.4,1.8-1.8,3.4-3.2,4.6c0,0,0,0,0,0
							c1,0.6,1.5,1,2.4,1.6C68.3,28.7,68.8,27.7,69.4,26z"/>
					</g>
				</g>
			</g>
			<g id="XMLID_4386_">
				<g>
					<g>
						<path class="st5" d="M17.3,3.2C16,3.1,14.7,4.5,14,5.5c-0.9,1.2-1.3,2.5-1,3.9c0.1,0.5,0.7,0.4,0.8,0c0.4-1,0.8-2.2,1.5-3.1
							c0.3-0.4,0.7-0.8,1.2-1.2c0.4-0.3,1-0.5,1.3-0.9C18.1,3.8,17.9,3.3,17.3,3.2z"/>
					</g>
				</g>
			</g>
			<g id="XMLID_4385_">
				<g>
					<g>
						<path class="st5" d="M19.9,2.6c-0.8,0-0.8,1.2,0,1.2C20.7,3.7,20.7,2.6,19.9,2.6z"/>
					</g>
				</g>
			</g>
			<g id="XMLID_4384_">
				<g>
					<g>
						<path class="st1" d="M12.2,16c-0.3,0-0.5-0.2-0.5-0.5c0-0.3,0.2-0.5,0.5-0.5c1.9,0,5.5-3.3,7.3-5.5c1.7-2,4-5,3.9-7.1
							c0-0.3,0.2-0.5,0.5-0.5c0,0,0,0,0,0c0.3,0,0.5,0.2,0.5,0.5c0,2.4-2.2,5.4-4.2,7.7C19,11.6,14.8,16,12.2,16z"/>
					</g>
				</g>
			</g>
		</g>
		<g id="XMLID_4380_">
			<g id="XMLID_4382_">
				<g>
					<g>
						<path class="st0" d="M92.6,15.7c-4.1-3-0.9-13.5-0.1-14.5C94,3.2,92.6,15.7,92.6,15.7z"/>
					</g>
				</g>
			</g>
			<g id="XMLID_4381_">
				<g>
					<g>
						<path class="st0" d="M85.4,8.4c2.2-2.9,12.6-0.6,13.1,0S88.1,9.9,85.4,8.4z"/>
					</g>
				</g>
			</g>
		</g>
		<g id="XMLID_4377_">
			<g id="XMLID_4379_">
				<g>
					<g>
						<path class="st0" d="M8.7,66.8c-4.1-3-0.9-13.5-0.1-14.5C10,54.3,8.7,66.8,8.7,66.8z"/>
					</g>
				</g>
			</g>
			<g id="XMLID_4378_">
				<g>
					<g>
						<path class="st0" d="M1.5,59.5c2.2-2.9,12.6-0.6,13.1,0C15.1,60.1,4.2,61,1.5,59.5z"/>
					</g>
				</g>
			</g>
		</g>
		<g id="XMLID_4376_">
			<g>
				<g>
					<path class="st1" d="M56.1,21.7c-0.2,0-0.4-0.1-0.5-0.4c-0.1-0.3,0.1-0.6,0.3-0.6c1.6-0.5,1.6-1.5,1.6-1.5
						c0-0.3,0.2-0.5,0.5-0.5c0.3,0,0.5,0.2,0.5,0.5c0,0.1,0,1.8-2.4,2.5C56.2,21.7,56.1,21.7,56.1,21.7z"/>
				</g>
			</g>
		</g>
		<g id="XMLID_4375_">
			<g>
				<g>
					<path class="st0" d="M71,39.9c-0.1,0-0.2,0-0.3-0.1c-1.4-1.2-22.9-17.1-23.1-17.3c-0.2-0.2-0.3-0.5-0.1-0.7
						c0.2-0.2,0.5-0.3,0.7-0.1c0.9,0.7,21.7,16.1,23.1,17.3c0.2,0.2,0.3,0.5,0.1,0.7C71.3,39.9,71.1,39.9,71,39.9z"/>
				</g>
			</g>
		</g>
		<g id="XMLID_4374_">
			<g>
				<g>
					<path class="st3" d="M71.7,54.8c-0.3,0-0.6,0-0.9-0.1c-0.3-0.1-0.5-0.3-0.4-0.6c0.1-0.3,0.3-0.5,0.6-0.4
						c1.3,0.2,2.9-0.3,4.4-1.4c2.3-1.8,3.9-4.6,4.1-7.5c0-0.3,0.3-0.5,0.6-0.5c0.3,0,0.5,0.3,0.5,0.6c-0.3,3.3-2,6.3-4.6,8.3
						C74.7,54.2,73.1,54.8,71.7,54.8z"/>
				</g>
			</g>
		</g>
		<g id="XMLID_4373_">
			<g>
				<g>
					<path class="st1" d="M51.1,35.6c0,0-0.1,0-0.1,0c-0.3-0.1-0.6-0.1-0.8-0.1c-1-0.1-1.1-0.4-1.5-1.6l-0.1-0.4
						c-0.2-0.6-0.3-1-0.4-1.3c0-0.1,0-0.2-0.1-0.2c0,0-0.2-0.1-0.4-0.2l-0.2-0.1c-0.4-0.2-1.1-0.2-1.8-0.2c-0.8,0-1.6,0-2.4-0.3
						c-0.9-0.4-1-1.3-1.1-1.9c-0.1-0.7-0.1-0.7-0.4-0.8c-0.2,0-0.5-0.1-0.6-0.1c-0.7-0.1-1.2-0.1-1.4-0.6c-0.2-0.4,0-0.8,0.1-1.2
						c0.1-0.3,0.4-0.4,0.7-0.2c0.3,0.1,0.4,0.4,0.2,0.7c0,0.1-0.1,0.2-0.1,0.2c0.1,0,0.4,0,0.5,0.1c0.2,0,0.4,0,0.7,0.1
						c1.1,0.1,1.2,1,1.3,1.6c0.1,0.6,0.1,0.9,0.5,1.1c0.6,0.3,1.2,0.3,2,0.2c0.8,0,1.6,0,2.3,0.3l0.2,0.1c0.7,0.4,0.8,0.5,1,1.1
						c0.1,0.2,0.1,0.6,0.3,1.2l0.1,0.4c0.1,0.4,0.2,0.7,0.3,0.8c0,0,0.2,0,0.3,0c0.2,0,0.5,0.1,0.9,0.1c0.3,0.1,0.5,0.3,0.4,0.6
						C51.6,35.4,51.4,35.6,51.1,35.6z"/>
				</g>
			</g>
		</g>
	</g>
</g>
</svg>
