<?xml version="1.0" encoding="UTF-8"?>
<svg xmlns="http://www.w3.org/2000/svg" xml:space="preserve" width="10cm" height="2.5cm" version="1.1" style="shape-rendering:geometricPrecision; text-rendering:geometricPrecision; image-rendering:optimizeQuality; fill-rule:evenodd; clip-rule:evenodd"
viewBox="0 0 10000 2500"
 xmlns:xlink="http://www.w3.org/1999/xlink">
 <defs>
  <style type="text/css">
   <![CDATA[
    .fil0 {fill:none}
    .fil1 {fill:#003082}
    .fil2 {fill:#FEFEFE}
    .fil3 {fill:#373435;fill-rule:nonzero}
    .fil4 {fill:#969491;fill-rule:nonzero}
   ]]>
  </style>
 </defs>
 <g id="Layer_x0020_1">
  <metadata id="CorelCorpID_0Corel-Layer"/>
  <g id="_886915520">
   <polygon class="fil0" points="0,0 10000,0 10000,2500 0,2500 "/>
   <g>
    <path class="fil1" d="M1622 150c607,0 1099,493 1099,1100 0,607 -492,1100 -1099,1100 -608,0 -1100,-493 -1100,-1100 0,-607 492,-1100 1100,-1100z"/>
    <polygon class="fil2" points="1870,405 1851,412 1812,418 1779,425 1747,431 1721,438 1688,444 1662,451 1636,457 1610,464 1604,470 1578,477 1552,483 1526,490 1506,496 1487,503 1461,509 1442,516 1422,522 1416,529 1396,535 1377,542 1357,548 1338,555 1318,561 1299,568 1279,574 1266,581 1260,587 1240,594 1221,600 1208,607 1188,613 1169,619 1156,626 1143,632 1123,639 1117,645 1097,652 1085,658 1072,665 1052,671 1039,678 1026,684 1013,691 994,697 987,704 974,710 961,717 948,723 935,730 922,736 909,743 896,749 883,756 877,762 864,769 864,782 870,795 877,801 883,808 890,821 896,834 903,847 909,860 916,873 922,886 929,899 935,912 942,918 948,931 955,951 961,964 968,977 974,996 981,1015 987,1028 994,1048 1000,1054 1007,1074 1013,1093 1020,1106 1026,1132 1033,1145 1039,1165 1046,1191 1052,1210 1059,1223 1065,1243 1072,1269 1078,1288 1085,1314 1091,1340 1097,1366 1104,1392 1110,1424 1117,1437 1123,1463 1130,1502 1136,1528 1143,1561 1149,1600 1156,1639 1162,1678 1169,1730 1175,1749 1182,1756 1195,1762 1208,1768 1214,1775 1221,1781 1234,1788 1247,1794 1253,1801 1266,1807 1273,1814 1286,1820 1292,1827 1299,1833 1305,1840 1318,1846 1325,1853 1331,1859 1338,1866 1344,1872 1357,1879 1364,1892 1370,1898 1377,1905 1390,1911 1396,1918 1403,1931 1416,1937 1422,1950 1429,1957 1435,1963 1442,1970 1448,1976 1455,1983 1461,1989 1468,1996 1474,2009 1480,2015 1487,2022 1493,2028 1500,2035 1506,2048 1513,2054 1519,2067 1526,2074 1532,2080 1539,2087 1545,2093 1552,2106 1558,2113 1565,2119 1578,2119 1597,2113 1617,2106 1630,2100 1649,2093 1669,2087 1688,2080 1701,2074 1727,2067 1734,2061 1753,2054 1779,2048 1799,2041 1818,2035 1844,2028 1864,2022 1889,2015 1915,2009 1928,2002 1954,1996 1980,1989 2000,1983 2032,1976 2058,1970 2091,1963 2117,1957 2149,1950 2162,1944 2195,1937 2227,1931 2259,1924 2298,1918 2318,1911 2324,1898 2331,1866 2337,1840 2344,1807 2350,1781 2357,1756 2363,1736 2370,1723 2376,1704 2383,1684 2389,1665 2396,1639 2402,1619 2409,1606 2415,1587 2422,1567 2454,1496 2461,1476 2467,1463 2474,1450 2480,1431 2487,1424 2493,1411 2500,1398 2506,1385 2513,1372 2519,1353 2526,1340 2532,1327 2539,1321 2545,1314 2552,1295 2558,1288 2565,1275 2571,1262 2578,1256 2578,1230 2571,1223 2565,1210 2558,1197 2552,1191 2545,1178 2539,1171 2532,1158 2526,1152 2519,1139 2513,1126 2506,1119 2500,1106 2493,1093 2487,1087 2480,1080 2474,1067 2467,1054 2461,1041 2454,1035 2448,1022 2441,1015 2435,1002 2428,990 2422,983 2415,970 2409,964 2402,951 2396,944 2389,925 2383,918 2376,905 2370,899 2363,892 2357,879 2357,853 2357,827 2350,717 2344,671 2337,639 2331,613 2324,600 2318,581 2311,568 2305,561 2298,555 2292,548 2285,542 2279,535 2272,529 2266,522 2253,516 2234,509 2214,503 2065,503 2026,509 2019,509 2013,496 2000,490 1993,477 1987,470 1980,457 1974,451 1967,444 1961,438 1954,425 1941,418 1935,405 1928,399 1909,399 "/>
    <path class="fil1" d="M1876 860c64,14 112,39 195,39l169 0c-13,-35 -129,-72 -182,-72l-71 0c-41,0 -88,14 -111,33z"/>
    <path class="fil1" d="M2078 1249l13 1 366 -54 -158 -244 -195 18 -26 0c-67,0 -124,-31 -169,-32 9,37 149,311 169,311z"/>
    <path class="fil1" d="M1695 1405l-130 26 -93 33 21 77 90 491 278 -108 22 -344 13 -182 0 -21 -162 21 -39 7zm123 -266l-71 -124 -7 0 -26 -25 -32 -33c-57,38 -80,188 -238,186l-63 -98 -126 91 187 257 259 -59 117 -33 70 -15 -50 -121 -13 -26 -7 0zm578 253l64 -119 -382 61 -72 562 221 -30 0 -33c0,-45 24,-115 35,-159 15,-60 46,-96 56,-139l78 -143zm-461 32l-46 500 98 -26 2 -58 43 -494 -91 26 -6 52z"/>
    <path class="fil1" d="M942 775l181 207 169 -70c-6,-11 -58,-103 -58,-104 0,-61 218,-111 312,-111l-72 -123c-60,29 -199,70 -270,93 -76,25 -208,96 -262,108z"/>
    <path class="fil1" d="M1825 684l45 85c82,0 172,7 235,25 44,12 59,13 100,29 39,16 59,44 80,50 0,-72 -7,-148 -26,-201 -15,-40 -63,-124 -110,-124l-39 0c-117,0 -246,61 -285,136z"/>
    <path class="fil1" d="M1357 827c0,111 66,164 85,234l13 0c26,-115 99,-226 214,-253 -10,-37 -85,-72 -137,-72l-19 0c-53,0 -156,44 -156,91z"/>
    <path class="fil1" d="M1792 1022l46 78 103 188c99,-8 86,-14 57,-82 -21,-50 -41,-87 -63,-132 -35,-70 -87,-208 -182,-208 -5,0 -26,21 -26,26 0,19 57,97 65,130z"/>
    <path class="fil1" d="M1368 1794l145 137c-8,-93 -78,-383 -121,-415l-24 278z"/>
    <path class="fil1" d="M1234 1717l0 -143c0,-98 -7,-180 -21,-265 -6,-38 -79,-172 -103,-190 23,95 46,193 60,298 6,48 24,108 25,157 1,35 10,135 39,143z"/>
    <path class="fil1" d="M1688 529l77 134 166 -127 4 6c-4,-14 -33,-59 -46,-59 -89,0 -137,31 -201,46z"/>
    <path class="fil1" d="M1279 1736l51 39 8 -97 0 -182c0,-56 -37,-145 -78,-156 4,52 21,136 22,189 1,54 -3,141 -3,207z"/>
    <polygon class="fil1" points="1520,575 1584,694 1708,684 1743,682 1642,540 "/>
    <path class="fil1" d="M1474 1100c74,-17 201,-148 201,-247 -101,2 -193,155 -201,247z"/>
    <path class="fil1" d="M1779 814l33 0c-1,-34 -20,-91 -52,-91l-26 0c-50,0 27,91 45,91z"/>
    <polygon class="fil2" points="825,1165 831,1184 838,1197 844,1210 851,1223 857,1236 864,1256 870,1275 877,1288 883,1301 890,1321 896,1340 903,1360 909,1379 916,1398 922,1424 929,1450 935,1476 942,1489 948,1515 955,1554 961,1587 968,1626 974,1684 981,1788 981,1846 981,1905 994,1911 1020,1918 1039,1924 1059,1931 1078,1937 1097,1944 1104,1950 1123,1957 1136,1963 1156,1970 1169,1976 1188,1983 1201,1989 1214,1996 1227,2002 1240,2009 1253,2015 1266,2022 1279,2028 1292,2035 1305,2041 1318,2048 1325,2054 1338,2061 1344,2067 1357,2074 1364,2080 1377,2087 1383,2093 1396,2100 1403,2106 1422,2106 1422,2093 1416,2087 1409,2080 1403,2067 1396,2061 1390,2048 1383,2041 1377,2028 1370,2022 1364,2015 1351,2009 1344,2002 1338,1989 1331,1983 1325,1976 1318,1970 1312,1963 1305,1957 1292,1950 1286,1944 1279,1937 1273,1931 1266,1924 1260,1918 1247,1911 1234,1905 1227,1898 1221,1892 1208,1885 1201,1879 1195,1872 1182,1866 1169,1859 1156,1853 1149,1846 1136,1840 1117,1833 1110,1827 1104,1794 1097,1756 1091,1730 1085,1697 1078,1671 1072,1639 1065,1626 1059,1606 1052,1574 1046,1554 1039,1535 1033,1509 1026,1489 1020,1470 1013,1450 1007,1444 1000,1424 994,1405 987,1392 981,1372 974,1360 968,1340 961,1327 955,1314 948,1308 942,1295 935,1282 929,1269 922,1262 916,1249 909,1243 903,1230 896,1217 890,1210 883,1204 877,1197 870,1191 864,1178 857,1171 851,1165 844,1158 838,1152 825,1152 "/>
    <polygon class="fil2" points="2448,821 2454,834 2461,847 2467,853 2474,860 2480,873 2487,879 2493,892 2500,905 2506,912 2513,925 2519,931 2526,944 2532,951 2539,964 2545,970 2552,983 2558,990 2565,1002 2571,1015 2578,1022 2584,1035 2591,1041 2597,1048 2604,1061 2610,1074 2617,1080 2623,1093 2629,1100 2636,1113 2642,1126 2655,1126 2655,1139 2662,1145 2662,1158 2655,1184 2649,1204 2642,1217 2636,1243 2629,1269 2623,1288 2617,1314 2610,1340 2604,1366 2597,1392 2591,1418 2584,1424 2578,1450 2571,1476 2565,1502 2558,1522 2552,1548 2545,1574 2539,1600 2539,1613 2552,1613 2558,1606 2565,1587 2571,1574 2578,1561 2584,1548 2591,1528 2597,1515 2604,1509 2610,1496 2617,1483 2623,1470 2629,1457 2636,1444 2642,1424 2649,1411 2655,1398 2662,1392 2668,1379 2675,1366 2681,1347 2688,1334 2694,1321 2701,1308 2707,1288 2714,1275 2720,1269 2727,1256 2733,1243 2740,1230 2746,1217 2753,1197 2759,1184 2766,1171 2772,1158 2772,1119 2766,1113 2759,1106 2753,1100 2746,1093 2740,1087 2733,1080 2727,1074 2720,1067 2714,1061 2707,1054 2701,1048 2694,1041 2688,1035 2681,1028 2675,1022 2668,1015 2662,1009 2655,1002 2649,996 2642,990 2636,983 2629,977 2623,970 2617,964 2610,957 2604,951 2597,944 2591,938 2584,931 2578,925 2571,918 2565,912 2558,905 2552,899 2545,892 2539,886 2532,879 2526,873 2519,866 2513,860 2506,853 2500,847 2493,840 2487,834 2480,827 2474,821 2467,814 2461,808 2454,801 2448,801 "/>
    <polygon class="fil2" points="1688,301 1649,308 1617,314 1584,321 1558,327 1539,334 1513,340 1493,347 1487,353 1461,360 1448,366 1429,373 1416,379 1396,386 1383,392 1370,399 1357,405 1344,412 1338,418 1325,425 1312,431 1299,438 1286,444 1279,451 1266,457 1260,464 1253,470 1247,477 1234,483 1227,490 1214,496 1208,503 1201,509 1201,529 1208,529 1221,522 1227,516 1240,509 1253,503 1266,496 1279,490 1292,483 1305,477 1318,470 1331,464 1351,457 1370,451 1383,444 1403,438 1422,431 1442,425 1455,418 1474,412 1493,405 1519,399 1545,392 1565,386 1591,379 1617,373 1643,366 1662,360 1688,353 1721,347 1747,340 1786,334 1818,327 1851,321 1889,314 1928,308 1948,301 1948,295 1734,295 "/>
    <polygon class="fil2" points="1818,1139 1825,1139 1838,1100 1792,1022 1747,1015 "/>
    <path class="fil3" d="M3068 1835l164 24c7,50 26,87 57,110 42,31 99,47 171,47 78,0 138,-16 180,-47 43,-31 71,-75 86,-130 9,-35 13,-106 12,-216 -73,86 -165,130 -274,130 -137,0 -243,-49 -317,-148 -75,-98 -112,-217 -112,-354 0,-95 17,-182 51,-262 34,-80 84,-142 149,-186 65,-43 142,-65 229,-65 117,0 214,47 290,142l0 -119 155 0 0 857c0,154 -16,264 -47,328 -31,65 -81,116 -149,153 -69,38 -153,56 -252,56 -119,0 -214,-26 -287,-80 -73,-53 -108,-133 -106,-240zm139 -596c0,130 26,225 78,285 52,60 117,89 194,89 78,0 142,-29 195,-89 52,-59 78,-152 78,-280 0,-121 -27,-213 -81,-274 -53,-62 -119,-93 -194,-93 -75,0 -138,31 -191,92 -52,60 -79,150 -79,270zm957 -662l0 -194 168 0 0 194 -168 0zm0 1176l0 -992 168 0 0 992 -168 0zm464 0l0 -862 -148 0 0 -130 148 0 0 -106c0,-67 6,-116 18,-149 16,-43 45,-79 86,-106 40,-27 98,-40 171,-40 47,0 100,5 157,17l-25 146c-35,-6 -68,-9 -99,-9 -51,0 -87,11 -108,33 -22,21 -32,62 -32,122l0 92 193 0 0 130 -193 0 0 862 -168 0zm859 -151l24 149c-47,10 -89,15 -127,15 -61,0 -108,-10 -142,-29 -33,-19 -57,-45 -71,-77 -13,-31 -20,-97 -20,-198l0 -571 -124 0 0 -130 124 0 0 -246 167 -101 0 347 169 0 0 130 -169 0 0 580c0,49 3,79 9,93 6,14 15,24 29,33 13,8 32,12 57,12 19,0 43,-2 74,-7z"/>
    <path class="fil3" d="M5701 507l676 0c112,0 198,31 258,91 61,60 91,135 91,224 0,75 -22,139 -64,192 -29,36 -71,64 -126,85 83,21 145,59 185,112 39,53 59,120 59,200 0,66 -14,125 -42,177 -28,53 -67,94 -116,124 -30,19 -75,33 -137,42 -81,11 -135,17 -161,17l-623 0 0 -1264zm364 496l157 0c56,0 95,-10 118,-31 22,-22 32,-52 32,-91 0,-37 -10,-66 -32,-87 -23,-20 -61,-31 -116,-31l-159 0 0 240zm0 496l184 0c62,0 106,-11 131,-35 26,-24 39,-56 39,-96 0,-38 -13,-68 -38,-90 -25,-23 -69,-35 -133,-35l-183 0 0 256zm858 -359c0,-206 53,-367 159,-482 107,-115 254,-172 444,-172 194,0 344,56 449,169 105,113 157,271 157,475 0,147 -23,269 -69,363 -46,94 -112,168 -199,221 -87,52 -194,79 -324,79 -131,0 -240,-23 -327,-68 -86,-46 -156,-118 -209,-216 -54,-98 -81,-221 -81,-369zm361 2c0,127 22,219 65,275 44,55 104,83 179,83 78,0 138,-27 180,-81 42,-55 64,-153 64,-294 0,-120 -22,-206 -67,-261 -44,-55 -104,-82 -180,-82 -73,0 -131,27 -175,83 -44,56 -66,148 -66,277zm962 -635l397 0 207 389 200 -389 394 0 -363 612 397 652 -405 0 -230 -406 -231 406 -403 0 403 -658 -366 -606z"/>
    <path class="fil4" d="M6045 2114c0,24 -16,41 -48,52 -22,8 -48,12 -78,12l-169 0 0 89 -56 0 0 -286 225 0c84,0 126,22 126,64l0 69zm-56 -53c0,-16 -23,-24 -70,-24l-169 0 0 85 169 0c16,0 30,-2 41,-4 20,-4 29,-11 29,-20l0 -37zm359 206l-180 -97 -34 0 0 97 -56 0 0 -286 226 0c36,0 62,3 80,9 31,9 46,28 46,55l0 69c0,19 -10,33 -31,44 -17,8 -36,12 -56,12l-69 0 182 97 -108 0zm26 -211c0,-12 -23,-19 -70,-19l-170 0 0 78 209 -1c6,0 12,-1 19,-3 8,-3 12,-7 12,-13l0 -42zm448 147c0,24 -16,42 -48,53 -23,7 -49,11 -78,11l-100 0c-27,0 -53,-4 -77,-13 -32,-11 -49,-28 -49,-51l0 -158c0,-24 16,-42 48,-52 22,-8 48,-12 78,-12l100 0c84,0 126,22 126,64l0 158zm-56 -143c0,-15 -22,-23 -67,-23l-105 0c-44,0 -66,8 -66,23l0 129c0,15 22,22 66,22l105 0c45,0 67,-7 67,-22l0 -129zm565 207l0 -190 -184 183c-5,5 -12,8 -19,8 -8,0 -15,-3 -21,-9l-180 -181 0 189 -56 0 0 -257c0,-9 2,-16 6,-22 5,-6 11,-9 19,-9 8,0 15,4 23,11l209 210 211 -210c7,-7 15,-11 23,-11 7,0 14,3 18,9 4,6 7,13 7,22l0 257 -56 0zm456 -64c0,24 -16,42 -48,53 -23,7 -49,11 -78,11l-100 0c-27,0 -53,-4 -77,-13 -33,-11 -49,-28 -49,-51l0 -158c0,-24 16,-42 48,-52 22,-8 48,-12 78,-12l100 0c84,0 126,22 126,64l0 158zm-56 -143c0,-15 -22,-23 -67,-23l-106 0c-43,0 -65,8 -65,23l0 129c0,15 22,22 65,22l106 0c45,0 67,-7 67,-22l0 -129zm442 143c0,24 -16,42 -48,53 -23,7 -49,11 -78,11l-216 0 0 -56 216 0c46,0 70,-7 70,-22l0 -41c0,-14 -24,-21 -70,-21l-101 0c-76,0 -115,-18 -115,-53l0 -36c0,-38 39,-57 115,-57l215 0 0 56 -215 0c-17,0 -28,1 -33,2 -16,1 -24,6 -24,15l0 4c0,9 11,13 33,13 1,0 3,0 5,0 2,0 4,0 7,0l12 0 101 0c31,0 57,3 78,10 32,11 48,28 48,53l0 69zm35 64l0 -286 56 0 0 286 -56 0zm469 -28c0,8 -2,15 -7,21 -4,6 -10,9 -18,9 -7,0 -14,-3 -20,-8l-251 -194 0 200 -56 0 0 -257c0,-9 2,-16 7,-21 4,-6 10,-9 18,-9 7,0 14,3 20,8l251 194 0 -201 56 0 0 258zm401 -36c0,22 -16,39 -49,51 -24,8 -50,13 -77,13l-226 0 0 -286 226 0c30,0 56,4 78,12 32,11 48,28 48,52l0 158zm-56 -145c0,-14 -22,-21 -67,-21l-173 0 0 174 170 0c13,0 27,-2 42,-7 19,-6 28,-14 28,-24l0 -122zm456 145c0,24 -16,42 -48,53 -23,7 -49,11 -78,11l-100 0c-27,0 -53,-4 -77,-13 -32,-11 -49,-28 -49,-51l0 -158c0,-24 16,-42 48,-52 22,-8 48,-12 78,-12l100 0c84,0 126,22 126,64l0 158zm-56 -143c0,-15 -22,-23 -67,-23l-105 0c-44,0 -66,8 -66,23l0 129c0,15 22,22 66,22l105 0c45,0 67,-7 67,-22l0 -129z"/>
   </g>
  </g>
 </g>
</svg>
